<svg width="32" height="32" viewBox="0 0 32 32" fill="none" xmlns="http://www.w3.org/2000/svg">
<g id="Group 107">
<g id="Profile">
<circle id="Ellipse 4" cx="16" cy="16" r="15.5" fill="white" stroke="#202020"/>
<path id="Vector" d="M18.8116 10.641C18.8116 10.8386 18.8009 11.0361 18.7813 11.2315C18.7902 11.1529 18.7991 11.0721 18.8062 10.9935C18.7636 11.3841 18.6818 11.7636 18.5626 12.1273C18.5857 12.0554 18.6106 11.9836 18.6338 11.9118C18.5146 12.2665 18.3617 12.5988 18.175 12.9041L18.287 12.7223C18.1021 13.0231 17.887 13.2948 17.6487 13.5283L17.7927 13.3868C17.5509 13.6203 17.2878 13.8156 17.0069 13.9661C17.0638 13.9369 17.1207 13.9055 17.1775 13.8763C16.8895 14.0267 16.589 14.13 16.2796 14.1839C16.3419 14.1726 16.4059 14.1614 16.4681 14.1524C16.157 14.2041 15.844 14.2041 15.5329 14.1524C15.5951 14.1636 15.6591 14.1749 15.7213 14.1839C15.412 14.13 15.1115 14.0267 14.8234 13.8763C14.8803 13.9055 14.9372 13.9369 14.9941 13.9661C14.7132 13.8156 14.45 13.6226 14.2082 13.3868L14.3523 13.5283C14.114 13.2948 13.8989 13.0231 13.7139 12.7223L13.826 12.9041C13.641 12.5988 13.4864 12.2665 13.3672 11.9118C13.3903 11.9836 13.4152 12.0554 13.4383 12.1273C13.3192 11.7636 13.2374 11.3841 13.1948 10.9935C13.2036 11.0721 13.2125 11.1529 13.2197 11.2315C13.1788 10.8386 13.1788 10.4434 13.2197 10.0505C13.2108 10.1291 13.2019 10.2099 13.1948 10.2885C13.2374 9.89786 13.3192 9.51843 13.4383 9.15471C13.4152 9.22656 13.3903 9.2984 13.3672 9.37025C13.4864 9.01551 13.6393 8.68323 13.826 8.37789L13.7139 8.55975C13.8989 8.2589 14.114 7.98723 14.3523 7.75374L14.2082 7.89518C14.45 7.66169 14.7132 7.46636 14.9941 7.31593C14.9372 7.34512 14.8803 7.37655 14.8234 7.40574C15.1115 7.25532 15.412 7.15204 15.7213 7.09815C15.6591 7.10938 15.5951 7.12061 15.5329 7.12959C15.844 7.07795 16.157 7.07795 16.4681 7.12959C16.4059 7.11836 16.3419 7.10713 16.2796 7.09815C16.589 7.15204 16.8895 7.25532 17.1775 7.40574C17.1207 7.37655 17.0638 7.34512 17.0069 7.31593C17.2878 7.46636 17.5509 7.65944 17.7927 7.89518L17.6487 7.75374C17.887 7.98723 18.1021 8.2589 18.287 8.55975L18.175 8.37789C18.3599 8.68323 18.5146 9.01551 18.6338 9.37025C18.6106 9.2984 18.5857 9.22656 18.5626 9.15471C18.6818 9.51843 18.7636 9.89786 18.8062 10.2885C18.7973 10.2099 18.7884 10.1291 18.7813 10.0505C18.8009 10.2459 18.8098 10.4434 18.8116 10.641C18.8133 11.1102 19.1369 11.5615 19.5228 11.5391C19.9068 11.5166 20.2358 11.1439 20.234 10.641C20.2304 9.56558 19.9744 8.46545 19.473 7.58984C19.3379 7.3541 19.1938 7.12285 19.0338 6.91405C18.872 6.70301 18.6942 6.52115 18.5093 6.34378C18.1732 6.02048 17.7981 5.7825 17.3998 5.59839C15.7942 4.85525 13.858 5.51757 12.7716 7.18796C12.6222 7.41697 12.48 7.65495 12.3591 7.9109C12.2382 8.1646 12.1439 8.43402 12.0568 8.70793C11.8932 9.21533 11.8097 9.75417 11.7759 10.2997C11.7101 11.3684 11.9306 12.4843 12.3715 13.4003C12.7965 14.2849 13.4383 15.0437 14.1887 15.4726C14.4092 15.5983 14.635 15.715 14.8697 15.7981C15.1026 15.8789 15.3391 15.9238 15.5791 15.9598C16.0165 16.0249 16.4628 15.98 16.8948 15.87C18.536 15.4479 19.9104 13.663 20.1646 11.5683C20.202 11.2629 20.2304 10.9576 20.2304 10.6477C20.2322 10.1785 19.9015 9.72723 19.5192 9.74968C19.1352 9.76539 18.8116 10.1381 18.8116 10.641ZM21.171 24.6799H12.0479C11.6443 24.6799 11.2407 24.6844 10.8371 24.6799C10.7926 24.6799 10.7482 24.6754 10.7055 24.6687C10.7677 24.6799 10.8318 24.6912 10.894 24.7001C10.8229 24.6867 10.7553 24.662 10.6895 24.6283C10.7464 24.6575 10.8033 24.6889 10.8602 24.7181C10.7891 24.6799 10.7233 24.6305 10.6611 24.5699L10.8051 24.7114C10.7517 24.6552 10.702 24.5946 10.6593 24.5273L10.7713 24.7091C10.7233 24.6305 10.686 24.5475 10.654 24.4577C10.6771 24.5295 10.702 24.6014 10.7251 24.6732C10.6984 24.5901 10.6806 24.5026 10.6682 24.415C10.6771 24.4936 10.686 24.5744 10.6931 24.653C10.6646 24.3813 10.6842 24.094 10.6842 23.82V22.8591C10.6842 22.6189 10.6948 22.3809 10.7197 22.1429C10.7108 22.2215 10.702 22.3023 10.6948 22.3809C10.7446 21.9206 10.8406 21.4694 10.9847 21.0405C10.9616 21.1124 10.9367 21.1842 10.9135 21.2561C11.0522 20.8475 11.23 20.4635 11.4452 20.1111L11.3332 20.2929C11.5483 19.9449 11.7954 19.6306 12.0728 19.3589L11.9288 19.5004C12.208 19.2287 12.512 19.0042 12.8356 18.8291C12.7787 18.8583 12.7218 18.8897 12.6649 18.9189C13.0045 18.7393 13.3601 18.6158 13.7264 18.5529C13.6642 18.5641 13.6002 18.5754 13.5379 18.5843C13.8011 18.5417 14.0624 18.5394 14.3274 18.5394H17.5812C17.8745 18.5394 18.1661 18.5372 18.4595 18.5843C18.3973 18.5731 18.3333 18.5619 18.271 18.5529C18.6355 18.6158 18.9929 18.737 19.3325 18.9189C19.2756 18.8897 19.2187 18.8583 19.1618 18.8291C19.4854 19.0042 19.7895 19.2287 20.0686 19.5004L19.9246 19.3589C20.2002 19.6306 20.4491 19.9427 20.6643 20.2929L20.5523 20.1111C20.7674 20.4635 20.9452 20.8475 21.0839 21.2561C21.0608 21.1842 21.0359 21.1124 21.0128 21.0405C21.155 21.4694 21.2528 21.9184 21.3026 22.3809C21.2937 22.3023 21.2848 22.2215 21.2777 22.1429C21.3115 22.4819 21.3132 22.8187 21.3132 23.16V24.2713C21.3132 24.3993 21.3168 24.5273 21.3044 24.653C21.3132 24.5744 21.3221 24.4936 21.3293 24.415C21.3186 24.5048 21.299 24.5901 21.2724 24.6732C21.2955 24.6014 21.3204 24.5295 21.3435 24.4577C21.3132 24.5475 21.2741 24.6305 21.2261 24.7091L21.3381 24.5273C21.2937 24.5946 21.2457 24.6575 21.1923 24.7114L21.3364 24.5699C21.2741 24.6305 21.2083 24.6777 21.1372 24.7181C21.1941 24.6889 21.251 24.6575 21.3079 24.6283C21.2421 24.662 21.1728 24.6844 21.1034 24.7001C21.1657 24.6889 21.2297 24.6777 21.2919 24.6687C21.2528 24.6754 21.2119 24.6777 21.171 24.6799C20.9879 24.6822 20.7994 24.7787 20.6678 24.9426C20.5451 25.0975 20.4509 25.3535 20.4598 25.578C20.4776 26.0585 20.7727 26.4828 21.171 26.4761C21.8627 26.4626 22.4707 25.8923 22.6734 25.0549C22.7535 24.7226 22.7357 24.3656 22.7357 24.0244C22.7357 23.243 22.7552 22.4685 22.6486 21.6939C22.4921 20.5601 22.0405 19.4936 21.4217 18.6562C20.803 17.8188 19.9708 17.2036 19.0907 16.9297C18.5857 16.7725 18.0772 16.7478 17.5616 16.7478H14.4074C13.8793 16.7478 13.3548 16.7792 12.8409 16.9521C11.9679 17.244 11.1465 17.8659 10.5402 18.7101C9.92852 19.561 9.48579 20.6297 9.34177 21.7702C9.24575 22.5358 9.26531 23.3037 9.26531 24.076C9.26531 24.4307 9.24931 24.8012 9.35066 25.1402C9.48223 25.5758 9.69204 25.9193 9.99964 26.1775C10.2397 26.3773 10.5437 26.4738 10.8282 26.4783C10.9669 26.4805 11.1056 26.4783 11.2443 26.4783H21.1728C21.5444 26.4783 21.9018 26.0652 21.884 25.5802C21.8662 25.0908 21.5711 24.6799 21.171 24.6799Z" fill="black"/>
</g>
</g>
</svg>
