<svg width="24" height="24" viewBox="0 0 24 24" fill="none" xmlns="http://www.w3.org/2000/svg">
<g id="Frame">
<path id="Vector" d="M1.97461 21V18H5.07461L2.52461 9.65002C2.07461 9.40002 1.70378 9.03336 1.41211 8.55002C1.12044 8.06669 0.974609 7.55002 0.974609 7.00002C0.974609 6.16669 1.26628 5.45836 1.84961 4.87502C2.43294 4.29169 3.14128 4.00002 3.97461 4.00002C4.62461 4.00002 5.20378 4.18752 5.71211 4.56252C6.22044 4.93752 6.57461 5.41669 6.77461 6.00002H9.97461V5.00002C9.97461 4.71669 10.0704 4.47919 10.2621 4.28752C10.4538 4.09586 10.6913 4.00002 10.9746 4.00002C11.1246 4.00002 11.2704 4.03336 11.4121 4.10002C11.5538 4.16669 11.6746 4.26669 11.7746 4.40002L13.4746 2.80002C13.6246 2.65002 13.8038 2.55419 14.0121 2.51252C14.2204 2.47086 14.4246 2.50002 14.6246 2.60002L18.5246 4.40002C18.7246 4.50002 18.8621 4.64586 18.9371 4.83752C19.0121 5.02919 19.0079 5.21669 18.9246 5.40002C18.8246 5.60002 18.6788 5.72919 18.4871 5.78752C18.2954 5.84586 18.1079 5.83336 17.9246 5.75002L14.3246 4.10002L11.9746 6.30002V7.70002L14.3246 9.85002L17.9246 8.20002C18.1079 8.11669 18.2996 8.10836 18.4996 8.17502C18.6996 8.24169 18.8413 8.36669 18.9246 8.55002C19.0246 8.75002 19.0329 8.94169 18.9496 9.12502C18.8663 9.30836 18.7246 9.45002 18.5246 9.55002L14.6246 11.4C14.4246 11.5 14.2204 11.5292 14.0121 11.4875C13.8038 11.4459 13.6246 11.35 13.4746 11.2L11.7746 9.60002C11.6746 9.70002 11.5538 9.79169 11.4121 9.87502C11.2704 9.95836 11.1246 10 10.9746 10C10.6913 10 10.4538 9.90419 10.2621 9.71252C10.0704 9.52086 9.97461 9.28336 9.97461 9.00002V8.00002H6.77461C6.72461 8.13336 6.67044 8.25836 6.61211 8.37502C6.55378 8.49169 6.47461 8.61669 6.37461 8.75002L11.3746 18H14.9746V21H1.97461ZM3.97461 8.00002C4.25794 8.00002 4.49544 7.90419 4.68711 7.71252C4.87878 7.52086 4.97461 7.28336 4.97461 7.00002C4.97461 6.71669 4.87878 6.47919 4.68711 6.28752C4.49544 6.09586 4.25794 6.00002 3.97461 6.00002C3.69128 6.00002 3.45378 6.09586 3.26211 6.28752C3.07044 6.47919 2.97461 6.71669 2.97461 7.00002C2.97461 7.28336 3.07044 7.52086 3.26211 7.71252C3.45378 7.90419 3.69128 8.00002 3.97461 8.00002ZM7.12461 18H9.07461L4.77461 10H4.67461L7.12461 18Z" fill="black"/>
</g>
</svg>
