<svg width="24" height="24" viewBox="0 0 24 24" fill="none" xmlns="http://www.w3.org/2000/svg">
<g id="Frame" clip-path="url(#clip0_1_11706)">
<path id="Vector" d="M11.8791 20.001C11.9458 20.001 12.0125 19.9843 12.0791 19.951C12.1458 19.9176 12.1958 19.8843 12.2291 19.851L20.4291 11.651C20.6291 11.451 20.775 11.226 20.8666 10.976C20.9583 10.726 21.0041 10.476 21.0041 10.226C21.0041 9.95931 20.9583 9.70514 20.8666 9.46348C20.775 9.22181 20.6291 9.00931 20.4291 8.82598L16.1791 4.57598C15.9958 4.37598 15.7833 4.23014 15.5416 4.13848C15.3 4.04681 15.0458 4.00098 14.7791 4.00098C14.5291 4.00098 14.2791 4.04681 14.0291 4.13848C13.7791 4.23014 13.5541 4.37598 13.3541 4.57598L13.0791 4.85098L14.9291 6.72598C15.1791 6.95931 15.3625 7.22598 15.4791 7.52598C15.5958 7.82598 15.6541 8.14264 15.6541 8.47598C15.6541 9.17598 15.4166 9.76348 14.9416 10.2385C14.4666 10.7135 13.8791 10.951 13.1791 10.951C12.8458 10.951 12.525 10.8926 12.2166 10.776C11.9083 10.6593 11.6375 10.4843 11.4041 10.251L9.52914 8.40098L5.15414 12.776C5.10414 12.826 5.06664 12.8801 5.04164 12.9385C5.01664 12.9968 5.00414 13.0593 5.00414 13.126C5.00414 13.2593 5.05414 13.3801 5.15414 13.4885C5.25414 13.5968 5.37081 13.651 5.50414 13.651C5.57081 13.651 5.63747 13.6343 5.70414 13.601C5.77081 13.5676 5.82081 13.5343 5.85414 13.501L9.25414 10.101L10.6541 11.501L7.27914 14.901C7.22914 14.951 7.19164 15.0051 7.16664 15.0635C7.14164 15.1218 7.12914 15.1843 7.12914 15.251C7.12914 15.3843 7.17914 15.501 7.27914 15.601C7.37914 15.701 7.49581 15.751 7.62914 15.751C7.69581 15.751 7.76247 15.7343 7.82914 15.701C7.89581 15.6676 7.94581 15.6343 7.97914 15.601L11.3791 12.226L12.7791 13.626L9.40414 17.026C9.35414 17.0593 9.31664 17.1093 9.29164 17.176C9.26664 17.2426 9.25414 17.3093 9.25414 17.376C9.25414 17.5093 9.30414 17.626 9.40414 17.726C9.50414 17.826 9.62081 17.876 9.75414 17.876C9.82081 17.876 9.88331 17.8635 9.94164 17.8385C9.99997 17.8135 10.0541 17.776 10.1041 17.726L13.5041 14.351L14.9041 15.751L11.5041 19.151C11.4541 19.201 11.4166 19.2551 11.3916 19.3135C11.3666 19.3718 11.3541 19.4343 11.3541 19.501C11.3541 19.6343 11.4083 19.751 11.5166 19.851C11.625 19.951 11.7458 20.001 11.8791 20.001ZM11.8541 22.001C11.2375 22.001 10.6916 21.7968 10.2166 21.3885C9.74164 20.9801 9.46247 20.4676 9.37914 19.851C8.81247 19.7676 8.33747 19.5343 7.95414 19.151C7.57081 18.7676 7.33747 18.2926 7.25414 17.726C6.68747 17.6426 6.21664 17.4051 5.84164 17.0135C5.46664 16.6218 5.23747 16.151 5.15414 15.601C4.52081 15.5176 4.00414 15.2426 3.60414 14.776C3.20414 14.3093 3.00414 13.7593 3.00414 13.126C3.00414 12.7926 3.06664 12.4718 3.19164 12.1635C3.31664 11.8551 3.49581 11.5843 3.72914 11.351L9.52914 5.57598L12.8041 8.85098C12.8375 8.90098 12.8875 8.93848 12.9541 8.96348C13.0208 8.98848 13.0875 9.00098 13.1541 9.00098C13.3041 9.00098 13.4291 8.95514 13.5291 8.86348C13.6291 8.77181 13.6791 8.65098 13.6791 8.50098C13.6791 8.43431 13.6666 8.36764 13.6416 8.30098C13.6166 8.23431 13.5791 8.18431 13.5291 8.15098L9.95414 4.57598C9.77081 4.37598 9.55831 4.23014 9.31664 4.13848C9.07497 4.04681 8.82081 4.00098 8.55414 4.00098C8.30414 4.00098 8.05414 4.04681 7.80414 4.13848C7.55414 4.23014 7.32914 4.37598 7.12914 4.57598L3.60414 8.12598C3.45414 8.27598 3.32914 8.45098 3.22914 8.65098C3.12914 8.85098 3.06247 9.05098 3.02914 9.25098C2.99581 9.45098 2.99581 9.65514 3.02914 9.86348C3.06247 10.0718 3.12914 10.2676 3.22914 10.451L1.77914 11.901C1.49581 11.5176 1.28747 11.0968 1.15414 10.6385C1.02081 10.1801 0.970807 9.71764 1.00414 9.25098C1.03747 8.78431 1.15414 8.33014 1.35414 7.88848C1.55414 7.44681 1.82914 7.05098 2.17914 6.70098L5.70414 3.17598C6.10414 2.79264 6.54997 2.50098 7.04164 2.30098C7.53331 2.10098 8.03747 2.00098 8.55414 2.00098C9.07081 2.00098 9.57497 2.10098 10.0666 2.30098C10.5583 2.50098 10.9958 2.79264 11.3791 3.17598L11.6541 3.45098L11.9291 3.17598C12.3291 2.79264 12.775 2.50098 13.2666 2.30098C13.7583 2.10098 14.2625 2.00098 14.7791 2.00098C15.2958 2.00098 15.8 2.10098 16.2916 2.30098C16.7833 2.50098 17.2208 2.79264 17.6041 3.17598L21.8291 7.40098C22.2125 7.78431 22.5041 8.22598 22.7041 8.72598C22.9041 9.22598 23.0041 9.73431 23.0041 10.251C23.0041 10.7676 22.9041 11.2718 22.7041 11.7635C22.5041 12.2551 22.2125 12.6926 21.8291 13.076L13.6291 21.251C13.3958 21.4843 13.125 21.6676 12.8166 21.801C12.5083 21.9343 12.1875 22.001 11.8541 22.001Z" fill="#202020"/>
</g>
<defs>
<clipPath id="clip0_1_11706">
<rect width="24" height="24" fill="white" transform="translate(0.00390625 0.000976562)"/>
</clipPath>
</defs>
</svg>
