<svg width="56" height="75" viewBox="0 0 56 75" fill="none" xmlns="http://www.w3.org/2000/svg">
<path id="Vector" d="M3.87826 74.6239V67.2683H13.9549L5.32659 28.7181C3.86937 27.7549 2.70826 26.377 1.84326 24.5844C0.9777 22.7924 0.544922 20.7318 0.544922 18.4026C0.544922 15.2498 1.35687 12.5642 2.98076 10.3457C4.60465 8.12729 6.57048 7.01806 8.87826 7.01806C10.9166 7.01806 12.6655 7.8719 14.1249 9.57957C15.5844 11.2873 16.5619 13.4693 17.0574 16.1257H29.2624V7.01806H32.1924L32.4424 9.89037L39.9874 0.415039L55.8458 10.6076L54.6149 14.163L40.5574 5.19654L32.5958 15.2149V21.5902L40.5574 31.3809L54.6541 22.4133L55.8849 25.9687L39.9874 36.2148L32.4424 26.9136L32.1349 29.7871H29.2624V20.6795H17.0574C16.8908 21.695 16.6141 22.7017 16.2274 23.6998C15.8408 24.6986 15.4166 25.5308 14.9549 26.1964L31.1091 67.2683H43.8783V74.6239H3.87826ZM8.87826 25.2333C10.2499 25.2333 11.426 24.5631 12.4066 23.2228C13.3877 21.8832 13.8783 20.2765 13.8783 18.4026C13.8783 16.5279 13.3877 14.9208 12.4066 13.5812C11.426 12.2417 10.2499 11.5719 8.87826 11.5719C7.50659 11.5719 6.3302 12.2417 5.34909 13.5812C4.36853 14.9208 3.87826 16.5279 3.87826 18.4026C3.87826 20.2765 4.36853 21.8832 5.34909 23.2228C6.3302 24.5631 7.50659 25.2333 8.87826 25.2333ZM17.4549 67.2683H27.2883L12.1858 28.9105C11.8441 29.2027 11.3613 29.4509 10.7374 29.655C10.1135 29.8592 9.54492 29.9032 9.03159 29.7871L17.4549 67.2683Z" fill="#0EE20E"/>
</svg>
