<svg width="125" height="109" viewBox="0 0 125 109" fill="none" xmlns="http://www.w3.org/2000/svg">
<path d="M41.375 108.95C35.275 108.95 29.725 107.55 24.725 104.75C19.725 101.9 15.4 97.975 11.75 92.975C8.15 87.975 5.375 82.2 3.425 75.65C1.475 69.05 0.5 62 0.5 54.5C0.5 47 1.475 39.975 3.425 33.425C5.375 26.825 8.15 21.025 11.75 16.025C15.4 11.025 19.725 7.12499 24.725 4.32499C29.725 1.47499 35.275 0.0499911 41.375 0.0499911C47.475 0.0499911 53.025 1.47499 58.025 4.32499C63.025 7.12499 67.3 11.025 70.85 16.025C74.45 21.025 77.225 26.825 79.175 33.425C81.175 39.975 82.175 47 82.175 54.5C82.175 62 81.175 69.05 79.175 75.65C77.225 82.2 74.45 87.975 70.85 92.975C67.3 97.975 63.025 101.9 58.025 104.75C53.025 107.55 47.475 108.95 41.375 108.95ZM41.375 90.65C46.725 90.65 51.15 88.95 54.65 85.55C58.15 82.15 60.75 77.7 62.45 72.2C64.15 66.7 65 60.8 65 54.5C65 47.85 64.1 41.8 62.3 36.35C60.5 30.85 57.85 26.475 54.35 23.225C50.85 19.975 46.525 18.35 41.375 18.35C37.325 18.35 33.8 19.35 30.8 21.35C27.85 23.3 25.4 25.975 23.45 29.375C21.5 32.775 20.05 36.65 19.1 41C18.15 45.3 17.675 49.8 17.675 54.5C17.675 60.75 18.525 66.65 20.225 72.2C21.975 77.7 24.6 82.15 28.1 85.55C31.65 88.95 36.075 90.65 41.375 90.65ZM105.874 107V20.3H92.6738L97.6238 1.99999H124.174V107H105.874Z" fill="white" fill-opacity="0.17"/>
</svg>
