<svg width="1149" height="1413" viewBox="0 0 1149 1413" fill="none" xmlns="http://www.w3.org/2000/svg">
<path opacity="0.0144928" d="M391.317 1098.47C400.367 1102.1 410.104 1100.68 416.15 1094.84L688.015 832.466C692.285 828.345 694.226 822.475 693.368 816.28L623.609 312.533C622.885 307.305 620.218 302.214 616.078 298.159L253.654 -56.815C247.441 -62.9004 238.685 -65.9133 230.63 -64.7376L-142.887 -10.2155C-150.942 -9.03977 -157.095 -3.8505 -159.067 3.42966L-274.109 428.099C-275.423 432.95 -274.767 438.335 -272.256 443.302L-30.3104 921.915C-27.3346 927.801 -22.0055 932.61 -15.6145 935.174L391.317 1098.47Z" stroke="url(#paint0_radial_1_11721)" stroke-width="4"/>
<path opacity="0.0289855" d="M323.967 1098.11C332.654 1102.03 342.262 1101.06 348.593 1095.63L636.811 848.475C641.389 844.55 643.732 838.724 643.265 832.428L606.308 333.63C605.91 328.263 603.498 322.945 599.512 318.646L261.212 -46.2359C255.383 -52.5228 246.908 -55.8725 238.88 -55.0624L-137.53 -17.0817C-145.559 -16.2716 -151.966 -11.4203 -154.415 -4.29809L-296.527 409.058C-298.202 413.929 -297.879 419.458 -295.618 424.637L-85.4944 905.961C-82.842 912.037 -77.7508 917.113 -71.4705 919.942L323.967 1098.11Z" stroke="url(#paint1_radial_1_11721)" stroke-width="4"/>
<path opacity="0.0434783" d="M256.87 1096.07C265.194 1100.25 274.671 1099.71 281.266 1094.68L584.754 863.317C589.625 859.603 592.372 853.847 592.311 847.477L587.619 354.976C587.566 349.495 585.438 343.969 581.633 339.438L267.938 -34.1843C262.504 -40.6553 254.32 -44.3237 246.329 -43.8697L-131.852 -22.3844C-139.843 -21.9304 -146.492 -17.4193 -149.407 -10.4741L-317.698 390.531C-319.739 395.394 -319.77 401.043 -317.785 406.414L-139.436 889.049C-137.13 895.291 -132.303 900.618 -126.154 903.706L256.87 1096.07Z" stroke="url(#paint2_radial_1_11721)" stroke-width="4"/>
<path opacity="0.057971" d="M190.136 1092.37C198.1 1096.8 207.446 1096.68 214.287 1092.05L531.922 876.974C537.074 873.486 540.222 867.825 540.579 861.41L567.529 376.502C567.839 370.935 566.02 365.227 562.423 360.478L273.733 -20.7152C268.706 -27.3527 260.82 -31.3229 252.876 -31.2162L-125.955 -26.1276C-133.9 -26.0209 -140.778 -21.8523 -144.147 -15.1019L-337.662 372.569C-340.073 377.398 -340.475 383.136 -338.79 388.676L-192.077 871.251C-190.136 877.635 -185.599 883.194 -179.602 886.532L190.136 1092.37Z" stroke="url(#paint3_radial_1_11721)" stroke-width="4"/>
<path opacity="0.0724638" d="M123.878 1087.06C131.485 1091.73 140.702 1092 147.774 1087.76L478.4 889.428C483.815 886.18 487.362 880.64 488.144 874.211L546.036 398.141C546.719 392.519 545.234 386.656 541.872 381.708L278.508 -5.88993C273.896 -12.6765 266.315 -16.9332 258.426 -17.1659L-119.94 -28.3228C-127.83 -28.5554 -134.926 -24.7316 -138.739 -18.1933L-356.46 355.219C-359.239 359.985 -360.026 365.781 -358.664 371.463L-243.36 852.641C-241.802 859.139 -237.577 864.908 -231.753 868.488L123.878 1087.06Z" stroke="url(#paint4_radial_1_11721)" stroke-width="4"/>
<path opacity="0.0869565" d="M58.2016 1080.17C65.4564 1085.07 74.5483 1085.73 81.8389 1081.87L424.268 900.666C429.93 897.671 433.868 892.28 435.079 885.867L523.137 419.821C524.204 414.178 523.072 408.192 519.97 403.068L282.175 10.225C277.987 3.30658 270.715 -1.22217 262.887 -1.7873L-113.908 -28.9868C-121.736 -29.5519 -129.041 -26.0753 -133.283 -19.7654L-374.14 338.525C-377.282 343.199 -378.461 349.018 -377.442 354.812L-293.234 833.292C-292.075 839.876 -288.183 845.833 -282.55 849.644L58.2016 1080.17Z" stroke="url(#paint5_radial_1_11721)" stroke-width="4"/>
<path opacity="0.101449" d="M-6.79032 1071.75C0.116154 1076.88 9.08807 1077.91 16.5864 1074.43L369.606 910.681C375.496 907.949 379.815 902.733 381.457 896.369L498.836 441.48C500.288 435.85 499.527 429.776 496.708 424.499L284.649 27.5642C280.891 20.5308 273.932 15.7428 266.17 14.851L-107.961 -28.1369C-115.723 -29.0288 -123.226 -25.9026 -127.884 -19.8361L-390.753 322.529C-394.248 327.081 -395.825 332.886 -395.163 338.758L-341.659 813.282C-340.911 819.921 -337.371 826.04 -331.947 830.072L-6.79032 1071.75Z" stroke="url(#paint6_radial_1_11721)" stroke-width="4"/>
<path opacity="0.115942" d="M-70.9938 1061.85C-64.4321 1067.2 -55.5745 1068.6 -47.8769 1065.5L314.499 919.466C320.597 917.008 325.283 911.993 327.352 905.711L473.143 463.051C474.981 457.471 474.602 451.347 472.085 445.943L285.854 46.0563C282.533 38.9245 275.889 33.8891 268.198 32.675L-102.195 -25.7972C-109.886 -27.0113 -117.579 -24.2392 -122.638 -18.4304L-406.348 307.269C-410.182 311.67 -412.156 317.423 -411.863 323.34L-388.596 792.688C-388.265 799.349 -385.093 805.604 -379.895 809.845L-70.9938 1061.85Z" stroke="url(#paint7_radial_1_11721)" stroke-width="4"/>
<path opacity="0.130435" d="M-134.314 1050.53C-128.094 1056.1 -119.345 1057.86 -111.455 1055.13L259.024 927.019C265.311 924.845 270.349 920.056 272.838 913.887L446.069 484.473C448.286 478.979 448.296 472.842 446.1 467.34L285.715 65.6273C282.835 58.4136 276.508 53.1409 268.893 51.6079L-96.7108 -21.9959C-104.325 -23.5288 -112.199 -21.115 -117.646 -15.5777L-420.983 292.778C-425.138 297.001 -427.502 302.665 -427.585 308.588L-434.014 771.583C-434.106 778.235 -431.314 784.6 -426.358 789.037L-134.314 1050.53Z" stroke="url(#paint8_radial_1_11721)" stroke-width="4"/>
<path opacity="0.144928" d="M-196.654 1037.84C-190.774 1043.62 -182.128 1045.75 -174.051 1043.39L203.268 933.343C209.723 931.46 215.093 926.92 217.99 920.895L417.636 505.685C420.22 500.312 420.622 494.201 418.759 488.63L284.166 86.2006C281.732 78.9214 275.725 73.4205 268.191 71.5708L-91.5992 -16.7648C-99.1333 -18.6146 -107.18 -16.564 -112.999 -11.3111L-434.71 279.087C-439.163 283.107 -441.907 288.643 -442.366 294.537L-477.883 750.045C-478.398 756.654 -475.996 763.102 -471.298 767.723L-196.654 1037.84Z" stroke="url(#paint9_radial_1_11721)" stroke-width="4"/>
<path opacity="0.15942" d="M-257.926 1023.85C-252.387 1029.85 -243.839 1032.33 -235.579 1030.35L147.309 938.444C153.91 936.86 159.59 932.59 162.88 926.739L387.863 526.632C390.797 521.414 391.587 515.367 390.067 509.758L281.143 107.701C279.157 100.372 273.473 94.651 266.024 92.4853L-86.9565 -10.137C-94.4056 -12.3026 -102.615 -10.6212 -108.791 -5.66511L-447.589 266.225C-452.316 270.019 -455.421 275.392 -456.255 281.221L-520.185 728.151C-521.12 734.687 -519.115 741.19 -514.688 745.981L-257.926 1023.85Z" stroke="url(#paint10_radial_1_11721)" stroke-width="4"/>
<path opacity="0.173913" d="M-318.045 1008.63C-312.848 1014.83 -304.395 1017.68 -295.956 1016.07L91.2256 942.329C97.9522 941.048 103.918 937.069 107.582 931.42L356.772 547.257C360.037 542.224 361.206 536.279 360.036 530.661L276.588 130.045C275.055 122.682 269.695 116.748 262.336 114.267L-82.8733 -2.15428C-90.2319 -4.63596 -98.5953 -3.33036 -105.111 1.31724L-459.678 254.215C-464.65 257.761 -468.096 262.939 -469.296 268.668L-560.904 705.974C-562.251 712.406 -560.647 718.938 -556.504 723.884L-318.045 1008.63Z" stroke="url(#paint11_radial_1_11721)" stroke-width="4"/>
<path opacity="0.188406" d="M-376.929 992.23C-372.077 998.646 -363.717 1001.87 -355.105 1000.64L35.0993 945.011C41.9287 944.038 48.1536 940.367 52.1716 934.944L324.394 567.509C327.965 562.69 329.499 556.88 328.68 551.282L270.452 153.151C269.373 145.771 264.341 139.631 257.079 136.833L-79.4366 7.14156C-86.6985 4.34287 -95.2052 5.26528 -102.045 9.59321L-471.034 243.077C-476.223 246.36 -479.983 251.312 -481.537 256.908L-600.028 683.59C-601.777 689.888 -600.573 696.422 -596.726 701.51L-376.929 992.23Z" stroke="url(#paint12_radial_1_11721)" stroke-width="4"/>
<path opacity="0.202899" d="M-434.501 974.738C-430.001 981.365 -421.734 984.966 -412.953 984.123L-20.9913 946.506C-14.0816 945.843 -7.62509 942.495 -3.27764 937.32L290.758 587.339C294.607 582.758 296.49 577.114 296.022 571.565L262.688 176.938C262.065 169.557 257.365 163.216 250.208 160.099L-76.731 17.7048C-83.8888 14.5873 -92.5274 15.1186 -99.673 19.1159L-481.717 232.83C-487.089 235.836 -491.136 240.537 -493.028 245.971L-637.549 661.071C-639.685 667.209 -638.88 673.72 -635.34 678.934L-434.501 974.738Z" stroke="url(#paint13_radial_1_11721)" stroke-width="4"/>
<path opacity="0.217391" d="M-490.692 956.227C-486.552 963.064 -478.381 967.053 -469.436 966.602L-76.9711 946.833C-70.0036 946.482 -63.3447 943.469 -58.6936 938.562L255.895 606.7C259.994 602.376 262.205 596.927 262.081 591.452L253.257 201.32C253.09 193.954 248.728 187.419 241.684 183.98L-74.8401 29.4853C-81.8849 26.0467 -90.6424 26.1785 -98.0758 29.8347L-491.786 223.49C-497.311 226.207 -501.614 230.636 -503.824 235.882L-673.467 638.492C-675.975 644.444 -675.564 650.908 -672.339 656.234L-490.692 956.227Z" stroke="url(#paint14_radial_1_11721)" stroke-width="4"/>
<path opacity="0.231884" d="M-545.436 936.773C-541.666 943.819 -533.596 948.206 -524.495 948.156L-132.764 946.012C-125.762 945.973 -118.931 943.305 -114.003 938.683L219.839 625.547C224.158 621.497 226.673 616.264 226.886 610.888L242.124 226.212C242.415 218.878 238.396 212.154 231.475 208.391L-73.8423 42.4302C-80.7638 38.6679 -89.6254 38.3911 -97.3275 41.6966L-501.302 215.067C-506.947 217.49 -511.473 221.63 -513.98 226.665L-707.784 615.922C-710.645 621.667 -710.622 628.062 -707.721 633.483L-545.436 936.773Z" stroke="url(#paint15_radial_1_11721)" stroke-width="4"/>
<path opacity="0.246377" d="M-598.674 916.456C-595.285 923.709 -587.326 928.505 -578.077 928.866L-188.298 944.068C-181.283 944.342 -174.31 942.025 -169.133 937.7L182.627 643.836C187.134 640.071 189.929 635.074 190.468 629.819L229.262 251.528C230.009 244.242 226.342 237.334 219.556 233.246L-73.8124 56.4828C-80.5984 52.394 -89.5478 51.6997 -97.4988 54.645L-510.323 207.573C-516.058 209.697 -520.774 213.536 -523.554 218.342L-740.508 593.431C-743.7 598.951 -744.056 605.255 -741.486 610.756L-598.674 916.456Z" stroke="url(#paint16_radial_1_11721)" stroke-width="4"/>
<path opacity="0.26087" d="M-650.35 895.359C-647.357 902.817 -639.52 908.033 -630.135 908.815L-243.498 941.031C-236.494 941.615 -229.409 939.653 -224.012 935.637L144.299 661.527C148.964 658.055 152.013 653.31 152.865 648.195L214.652 277.183C215.854 269.962 212.547 262.878 205.91 258.46L-74.8198 71.5857C-81.4563 67.1679 -90.4748 66.0472 -98.6537 68.6238L-518.907 201.014C-524.701 202.839 -529.576 206.369 -532.604 210.931L-771.648 571.091C-775.15 576.368 -775.875 582.563 -773.642 588.129L-650.35 895.359Z" stroke="url(#paint17_radial_1_11721)" stroke-width="4"/>
<path opacity="0.275362" d="M-700.417 873.566C-697.836 881.223 -690.138 886.872 -680.63 888.087L-298.299 936.929C-291.327 937.82 -284.16 936.216 -278.572 932.515L104.893 678.579C109.686 675.405 112.963 670.922 114.112 665.964L198.275 303.09C199.93 295.951 196.991 288.696 190.52 283.948L-76.9343 87.675C-83.4053 82.9262 -92.4723 81.3706 -100.858 83.5703L-527.117 195.395C-532.941 196.923 -537.944 200.14 -541.194 204.446L-801.222 548.967C-805.011 553.988 -806.094 560.056 -804.201 565.671L-700.417 873.566Z" stroke="url(#paint18_radial_1_11721)" stroke-width="4"/>
<path opacity="0.289855" d="M-748.833 851.161C-746.681 859.011 -739.141 865.104 -729.526 866.763L-352.631 931.796C-345.713 932.99 -338.494 931.743 -332.741 928.363L64.4532 694.957C69.3471 692.081 72.8254 687.867 74.2575 683.08L180.124 329.163C182.23 322.124 179.67 314.707 173.383 309.626L-80.2157 104.687C-86.5032 99.6064 -95.5956 97.6079 -104.164 99.4236L-535.009 190.719C-540.837 191.954 -545.937 194.857 -549.386 198.901L-829.247 527.126C-833.301 531.88 -834.728 537.807 -833.18 543.454L-748.833 851.161Z" stroke="url(#paint19_radial_1_11721)" stroke-width="4"/>
<path opacity="0.304348" d="M-795.564 828.233C-793.86 836.266 -786.502 842.814 -776.8 844.929L-406.433 925.668C-399.591 927.159 -392.348 926.268 -386.457 923.209L23.0222 710.622C27.9906 708.043 31.6458 704.103 33.3433 699.497L160.195 355.319C162.746 348.396 160.577 340.824 154.493 335.411L-84.7248 122.556C-90.8091 117.142 -99.9016 114.694 -108.631 116.119L-542.644 186.986C-548.452 187.935 -553.623 190.526 -557.245 194.304L-855.751 505.633C-860.046 510.112 -861.805 515.883 -860.604 521.548L-795.564 828.233Z" stroke="url(#paint20_radial_1_11721)" stroke-width="4"/>
<path opacity="0.318841" d="M-840.577 804.868C-839.341 813.074 -832.192 820.084 -822.427 822.666L-459.639 918.582C-452.894 920.365 -445.654 919.824 -439.65 917.088L-19.3494 725.543C-14.3304 723.256 -10.5217 719.591 -8.57593 715.176L138.492 381.473C141.483 374.684 139.718 366.968 133.859 361.223L-90.5117 141.212C-96.3707 135.467 -105.436 132.563 -114.3 133.593L-550.079 184.195C-555.845 184.865 -561.061 187.15 -564.833 190.659L-880.758 484.552C-885.27 488.75 -887.349 494.353 -886.495 500.021L-840.577 804.868Z" stroke="url(#paint21_radial_1_11721)" stroke-width="4"/>
<path opacity="0.333333" d="M-883.786 780.82C-883.038 789.184 -876.129 796.664 -866.326 799.723L-512.126 910.244C-505.499 912.312 -498.286 912.115 -492.194 909.699L-62.5474 739.351C-57.4995 737.35 -53.5591 733.958 -51.3821 729.74L115.091 407.206C118.516 400.569 117.167 392.719 111.557 386.645L-97.5587 160.249C-103.169 154.175 -112.177 150.812 -121.152 151.441L-557.307 182.006C-563.011 182.406 -568.249 184.392 -572.151 187.634L-904.234 463.608C-908.943 467.522 -911.326 472.947 -910.82 478.602L-883.786 780.82Z" stroke="url(#paint22_radial_1_11721)" stroke-width="4"/>
<path opacity="0.347826" d="M-925.308 756.848C-925.068 765.354 -918.435 773.306 -908.625 776.851L-563.972 901.367C-557.481 903.712 -550.321 903.851 -544.163 901.753L-106.654 752.688C-101.596 750.965 -97.544 747.843 -95.1523 743.827L89.8718 433.111C93.7238 426.642 92.8044 418.671 87.4682 412.273L-106.043 180.265C-111.379 173.867 -120.297 170.043 -129.357 170.268L-564.519 181.084C-570.144 181.223 -575.385 182.92 -579.396 185.898L-926.35 443.533C-931.234 447.159 -933.908 452.398 -933.749 458.025L-925.308 756.848Z" stroke="url(#paint23_radial_1_11721)" stroke-width="4"/>
<path opacity="0.362319" d="M-965.07 732.706C-965.357 741.334 -959.039 749.759 -949.254 753.795L-615.06 891.66C-608.724 894.273 -601.638 894.741 -595.435 892.955L-151.551 765.191C-146.5 763.738 -142.354 760.88 -139.764 757.068L62.9205 458.771C67.1901 452.488 66.7142 444.41 61.6787 437.695L-115.937 200.852C-120.972 194.138 -129.767 189.852 -138.885 189.672L-571.709 181.086C-577.24 180.976 -582.467 182.392 -586.57 185.111L-947.081 424.048C-952.119 427.388 -955.072 432.432 -955.258 438.019L-965.07 732.706Z" stroke="url(#paint24_radial_1_11721)" stroke-width="4"/>
<path opacity="0.376812" d="M-1003.06 708.481C-1003.9 717.208 -997.938 726.099 -988.216 730.632L-665.336 881.167C-659.174 884.04 -652.182 884.826 -645.952 883.347L-197.18 776.834C-192.149 775.64 -187.925 773.041 -185.151 769.434L34.2664 484.109C38.9436 478.027 38.9252 469.859 34.2185 462.838L-127.269 221.933C-131.976 214.911 -140.612 210.168 -149.761 209.58L-578.93 181.999C-584.356 181.65 -589.554 182.796 -593.732 185.262L-966.466 405.208C-971.641 408.262 -974.858 413.105 -975.387 418.637L-1003.06 708.481Z" stroke="url(#paint25_radial_1_11721)" stroke-width="4"/>
<path opacity="0.391304" d="M-1039.3 684.26C-1040.7 693.062 -1035.14 702.409 -1025.52 707.439L-714.758 869.937C-708.786 873.06 -701.907 874.155 -695.667 872.977L-243.485 787.594C-238.486 786.65 -234.198 784.303 -231.254 780.9L3.93902 509.051C9.01259 503.187 9.46535 494.947 5.11597 487.631L-140.068 243.432C-144.417 236.117 -152.858 230.921 -162.009 229.926L-586.241 183.813C-591.551 183.236 -596.708 184.122 -600.948 186.341L-984.556 387.066C-989.85 389.836 -993.32 394.474 -994.187 399.938L-1039.3 684.26Z" stroke="url(#paint26_radial_1_11721)" stroke-width="4"/>
<path opacity="0.405797" d="M-1073.79 660.131C-1075.77 668.978 -1070.66 678.765 -1061.18 684.291L-763.283 858.019C-757.516 861.382 -750.768 862.775 -744.533 861.89L-290.407 797.451C-285.451 796.748 -281.109 794.645 -278.008 791.445L-28.0255 533.525C-22.568 527.895 -21.631 519.604 -25.594 512.01L-154.355 265.275C-158.318 257.681 -166.524 252.042 -175.651 250.642L-593.698 186.513C-598.885 185.717 -603.991 186.355 -608.282 188.334L-1001.4 369.674C-1006.8 372.164 -1010.51 376.591 -1011.71 381.976L-1073.79 660.131Z" stroke="url(#paint27_radial_1_11721)" stroke-width="4"/>
<path opacity="0.42029" d="M-1106.55 636.178C-1109.12 645.038 -1104.51 655.242 -1095.22 661.256L-810.87 845.462C-805.324 849.054 -798.72 850.735 -792.503 850.137L-337.885 806.388C-332.978 805.916 -328.593 804.049 -325.345 801.05L-61.5832 557.461C-55.7555 552.079 -54.3223 543.76 -57.8698 535.908L-170.143 287.381C-173.691 279.529 -181.624 273.46 -190.697 271.657L-601.355 190.08C-606.411 189.076 -611.459 189.475 -615.791 191.222L-1017.05 353.077C-1022.54 355.29 -1026.48 359.504 -1028.01 364.797L-1106.55 636.178Z" stroke="url(#paint28_radial_1_11721)" stroke-width="4"/>
<defs>
<radialGradient id="paint0_radial_1_11721" cx="0" cy="0" r="1" gradientUnits="userSpaceOnUse" gradientTransform="translate(208.45 481.205) rotate(-107.604) scale(656.245 583.389)">
<stop offset="0.304" stop-color="#DDDDDD" stop-opacity="0.8"/>
<stop offset="0.544" stop-color="#0EE20E"/>
</radialGradient>
<radialGradient id="paint1_radial_1_11721" cx="0" cy="0" r="1" gradientUnits="userSpaceOnUse" gradientTransform="translate(181.278 482.005) rotate(-104.149) scale(644.373 585.644)">
<stop offset="0.304" stop-color="#DDDDDD" stop-opacity="0.8"/>
<stop offset="0.544" stop-color="#0EE20E"/>
</radialGradient>
<radialGradient id="paint2_radial_1_11721" cx="0" cy="0" r="1" gradientUnits="userSpaceOnUse" gradientTransform="translate(154.095 482.868) rotate(-100.631) scale(633.225 587.371)">
<stop offset="0.304" stop-color="#DDDDDD" stop-opacity="0.8"/>
<stop offset="0.544" stop-color="#0EE20E"/>
</radialGradient>
<radialGradient id="paint3_radial_1_11721" cx="0" cy="0" r="1" gradientUnits="userSpaceOnUse" gradientTransform="translate(126.898 483.796) rotate(-97.0566) scale(622.858 588.481)">
<stop offset="0.304" stop-color="#DDDDDD" stop-opacity="0.8"/>
<stop offset="0.544" stop-color="#0EE20E"/>
</radialGradient>
<radialGradient id="paint4_radial_1_11721" cx="0" cy="0" r="1" gradientUnits="userSpaceOnUse" gradientTransform="translate(99.6825 484.785) rotate(-93.4323) scale(613.32 588.892)">
<stop offset="0.304" stop-color="#DDDDDD" stop-opacity="0.8"/>
<stop offset="0.544" stop-color="#0EE20E"/>
</radialGradient>
<radialGradient id="paint5_radial_1_11721" cx="0" cy="0" r="1" gradientUnits="userSpaceOnUse" gradientTransform="translate(72.4463 485.833) rotate(-89.7665) scale(604.648 588.533)">
<stop offset="0.304" stop-color="#DDDDDD" stop-opacity="0.8"/>
<stop offset="0.544" stop-color="#0EE20E"/>
</radialGradient>
<radialGradient id="paint6_radial_1_11721" cx="0" cy="0" r="1" gradientUnits="userSpaceOnUse" gradientTransform="translate(45.1822 486.94) rotate(-86.0684) scale(596.865 587.35)">
<stop offset="0.304" stop-color="#DDDDDD" stop-opacity="0.8"/>
<stop offset="0.544" stop-color="#0EE20E"/>
</radialGradient>
<radialGradient id="paint7_radial_1_11721" cx="0" cy="0" r="1" gradientUnits="userSpaceOnUse" gradientTransform="translate(17.8896 488.103) rotate(-82.3484) scale(589.982 585.306)">
<stop offset="0.304" stop-color="#DDDDDD" stop-opacity="0.8"/>
<stop offset="0.544" stop-color="#0EE20E"/>
</radialGradient>
<radialGradient id="paint8_radial_1_11721" cx="0" cy="0" r="1" gradientUnits="userSpaceOnUse" gradientTransform="translate(-9.43807 489.319) rotate(-78.6173) scale(583.993 582.384)">
<stop offset="0.304" stop-color="#DDDDDD" stop-opacity="0.8"/>
<stop offset="0.544" stop-color="#0EE20E"/>
</radialGradient>
<radialGradient id="paint9_radial_1_11721" cx="0" cy="0" r="1" gradientUnits="userSpaceOnUse" gradientTransform="translate(-36.8006 490.587) rotate(-74.8862) scale(578.882 578.588)">
<stop offset="0.304" stop-color="#DDDDDD" stop-opacity="0.8"/>
<stop offset="0.544" stop-color="#0EE20E"/>
</radialGradient>
<radialGradient id="paint10_radial_1_11721" cx="0" cy="0" r="1" gradientUnits="userSpaceOnUse" gradientTransform="translate(-64.2046 491.905) rotate(-71.1662) scale(574.615 573.944)">
<stop offset="0.304" stop-color="#DDDDDD" stop-opacity="0.8"/>
<stop offset="0.544" stop-color="#0EE20E"/>
</radialGradient>
<radialGradient id="paint11_radial_1_11721" cx="0" cy="0" r="1" gradientUnits="userSpaceOnUse" gradientTransform="translate(-91.6524 493.269) rotate(-67.4682) scale(571.15 568.498)">
<stop offset="0.304" stop-color="#DDDDDD" stop-opacity="0.8"/>
<stop offset="0.544" stop-color="#0EE20E"/>
</radialGradient>
<radialGradient id="paint12_radial_1_11721" cx="0" cy="0" r="1" gradientUnits="userSpaceOnUse" gradientTransform="translate(-119.146 494.676) rotate(-63.8023) scale(568.429 562.313)">
<stop offset="0.304" stop-color="#DDDDDD" stop-opacity="0.8"/>
<stop offset="0.544" stop-color="#0EE20E"/>
</radialGradient>
<radialGradient id="paint13_radial_1_11721" cx="0" cy="0" r="1" gradientUnits="userSpaceOnUse" gradientTransform="translate(-146.689 496.125) rotate(-60.178) scale(566.388 555.466)">
<stop offset="0.304" stop-color="#DDDDDD" stop-opacity="0.8"/>
<stop offset="0.544" stop-color="#0EE20E"/>
</radialGradient>
<radialGradient id="paint14_radial_1_11721" cx="0" cy="0" r="1" gradientUnits="userSpaceOnUse" gradientTransform="translate(-174.283 497.613) rotate(-56.6034) scale(564.952 548.049)">
<stop offset="0.304" stop-color="#DDDDDD" stop-opacity="0.8"/>
<stop offset="0.544" stop-color="#0EE20E"/>
</radialGradient>
<radialGradient id="paint15_radial_1_11721" cx="0" cy="0" r="1" gradientUnits="userSpaceOnUse" gradientTransform="translate(-201.931 499.136) rotate(-53.0856) scale(564.042 540.157)">
<stop offset="0.304" stop-color="#DDDDDD" stop-opacity="0.8"/>
<stop offset="0.544" stop-color="#0EE20E"/>
</radialGradient>
<radialGradient id="paint16_radial_1_11721" cx="0" cy="0" r="1" gradientUnits="userSpaceOnUse" gradientTransform="translate(-229.636 500.691) rotate(-49.6303) scale(563.571 531.889)">
<stop offset="0.304" stop-color="#DDDDDD" stop-opacity="0.8"/>
<stop offset="0.544" stop-color="#0EE20E"/>
</radialGradient>
<radialGradient id="paint17_radial_1_11721" cx="0" cy="0" r="1" gradientUnits="userSpaceOnUse" gradientTransform="translate(-257.397 502.277) rotate(-46.2418) scale(563.453 523.347)">
<stop offset="0.304" stop-color="#DDDDDD" stop-opacity="0.8"/>
<stop offset="0.544" stop-color="#0EE20E"/>
</radialGradient>
<radialGradient id="paint18_radial_1_11721" cx="0" cy="0" r="1" gradientUnits="userSpaceOnUse" gradientTransform="translate(-285.22 503.888) rotate(-42.9232) scale(563.599 514.626)">
<stop offset="0.304" stop-color="#DDDDDD" stop-opacity="0.8"/>
<stop offset="0.544" stop-color="#0EE20E"/>
</radialGradient>
<radialGradient id="paint19_radial_1_11721" cx="0" cy="0" r="1" gradientUnits="userSpaceOnUse" gradientTransform="translate(-313.102 505.522) rotate(-39.6764) scale(563.921 505.818)">
<stop offset="0.304" stop-color="#DDDDDD" stop-opacity="0.8"/>
<stop offset="0.544" stop-color="#0EE20E"/>
</radialGradient>
<radialGradient id="paint20_radial_1_11721" cx="0" cy="0" r="1" gradientUnits="userSpaceOnUse" gradientTransform="translate(-341.048 507.177) rotate(-36.5018) scale(564.333 497.006)">
<stop offset="0.304" stop-color="#DDDDDD" stop-opacity="0.8"/>
<stop offset="0.544" stop-color="#0EE20E"/>
</radialGradient>
<radialGradient id="paint21_radial_1_11721" cx="0" cy="0" r="1" gradientUnits="userSpaceOnUse" gradientTransform="translate(-369.055 508.848) rotate(-33.3993) scale(564.752 488.267)">
<stop offset="0.304" stop-color="#DDDDDD" stop-opacity="0.8"/>
<stop offset="0.544" stop-color="#0EE20E"/>
</radialGradient>
<radialGradient id="paint22_radial_1_11721" cx="0" cy="0" r="1" gradientUnits="userSpaceOnUse" gradientTransform="translate(-397.06 510.198) rotate(-30.3674) scale(565.101 479.667)">
<stop offset="0.304" stop-color="#DDDDDD" stop-opacity="0.8"/>
<stop offset="0.544" stop-color="#0EE20E"/>
</radialGradient>
<radialGradient id="paint23_radial_1_11721" cx="0" cy="0" r="1" gradientUnits="userSpaceOnUse" gradientTransform="translate(-425.196 511.894) rotate(-27.4042) scale(565.305 471.264)">
<stop offset="0.304" stop-color="#DDDDDD" stop-opacity="0.8"/>
<stop offset="0.544" stop-color="#0EE20E"/>
</radialGradient>
<radialGradient id="paint24_radial_1_11721" cx="0" cy="0" r="1" gradientUnits="userSpaceOnUse" gradientTransform="translate(-453.398 513.598) rotate(-24.507) scale(565.297 463.107)">
<stop offset="0.304" stop-color="#DDDDDD" stop-opacity="0.8"/>
<stop offset="0.544" stop-color="#0EE20E"/>
</radialGradient>
<radialGradient id="paint25_radial_1_11721" cx="0" cy="0" r="1" gradientUnits="userSpaceOnUse" gradientTransform="translate(-481.664 515.306) rotate(-21.6725) scale(565.015 455.236)">
<stop offset="0.304" stop-color="#DDDDDD" stop-opacity="0.8"/>
<stop offset="0.544" stop-color="#0EE20E"/>
</radialGradient>
<radialGradient id="paint26_radial_1_11721" cx="0" cy="0" r="1" gradientUnits="userSpaceOnUse" gradientTransform="translate(-509.995 517.016) rotate(-18.8972) scale(564.403 447.685)">
<stop offset="0.304" stop-color="#DDDDDD" stop-opacity="0.8"/>
<stop offset="0.544" stop-color="#0EE20E"/>
</radialGradient>
<radialGradient id="paint27_radial_1_11721" cx="0" cy="0" r="1" gradientUnits="userSpaceOnUse" gradientTransform="translate(-538.392 518.725) rotate(-16.177) scale(563.411 440.48)">
<stop offset="0.304" stop-color="#DDDDDD" stop-opacity="0.8"/>
<stop offset="0.544" stop-color="#0EE20E"/>
</radialGradient>
<radialGradient id="paint28_radial_1_11721" cx="0" cy="0" r="1" gradientUnits="userSpaceOnUse" gradientTransform="translate(-566.851 520.428) rotate(-13.5079) scale(561.997 433.642)">
<stop offset="0.304" stop-color="#DDDDDD" stop-opacity="0.8"/>
<stop offset="0.544" stop-color="#0EE20E"/>
</radialGradient>
</defs>
</svg>
