<svg width="1440" height="762" viewBox="0 0 1440 762" fill="none" xmlns="http://www.w3.org/2000/svg">
<path fill-rule="evenodd" clip-rule="evenodd" d="M-677.774 379.025C-686.124 383.136 -691.016 388.19 -690.504 392.209C-690.268 394.024 -688.91 395.548 -686.579 396.61L-675.539 401.622C-678.179 404.162 -679.518 406.71 -679.241 408.924C-678.971 410.955 -677.366 412.606 -674.573 413.709L-663.974 417.881C-666.864 420.57 -668.309 423.271 -668.013 425.642L-668.014 425.635C-667.726 427.892 -665.853 429.68 -662.586 430.805L-652.526 434.26C-655.598 437.078 -657.149 439.916 -656.835 442.373L-656.852 442.377C-656.529 444.856 -654.373 446.769 -650.598 447.907L-641.244 450.722C-644.442 453.634 -646.02 456.547 -645.693 459.107C-645.349 461.826 -642.893 463.86 -638.594 464.999L-630.038 467.261C-633.298 470.252 -634.915 473.242 -634.584 475.857C-634.212 478.764 -631.388 480.979 -626.607 482.095L-618.951 483.878C-622.228 486.923 -623.853 489.969 -623.51 492.609C-623.118 495.749 -619.959 498.082 -614.622 499.184L-607.939 500.555C-611.178 503.634 -612.783 506.71 -612.451 509.373C-612.02 512.755 -608.527 515.2 -602.619 516.268L-597.014 517.282C-600.214 520.38 -601.75 523.431 -601.411 526.135L-601.413 526.128C-600.958 529.757 -597.129 532.326 -590.634 533.357L-586.154 534.071C-589.257 537.168 -590.74 540.21 -590.404 542.906C-589.91 546.777 -585.73 549.453 -578.649 550.446L-575.354 550.907C-578.329 553.99 -579.747 557.01 -579.415 559.681C-578.894 563.741 -574.253 566.609 -566.664 567.536L-564.597 567.789C-567.434 570.842 -568.78 573.829 -568.443 576.462C-567.897 580.774 -562.869 583.747 -554.68 584.618L-553.865 584.705C-556.55 587.719 -557.817 590.662 -557.486 593.253L-557.469 593.249C-556.91 597.726 -551.696 600.778 -543.167 601.661C-545.678 604.617 -546.854 607.497 -546.53 610.038C-545.959 614.538 -540.873 617.62 -532.485 618.609C-534.86 621.51 -535.935 624.3 -535.609 626.832C-535.024 631.361 -530.056 634.478 -521.795 635.571C-524.014 638.413 -525.006 641.143 -524.687 643.626L-524.706 643.624C-524.122 648.191 -519.24 651.34 -511.11 652.529C-513.193 655.316 -514.113 657.992 -513.799 660.43L-513.782 660.425C-513.217 664.949 -508.325 668.179 -500.387 669.476C-502.334 672.211 -503.191 674.835 -502.895 677.228L-502.912 677.233C-502.322 681.779 -497.52 685.047 -489.683 686.433C-491.514 689.116 -492.308 691.686 -492.007 694.032C-491.43 698.618 -486.708 701.913 -478.972 703.38C-480.693 706.012 -481.432 708.536 -481.137 710.84L-481.154 710.844C-480.565 715.461 -475.907 718.793 -468.259 720.339C-469.87 722.918 -470.556 725.388 -470.266 727.648C-469.677 732.297 -465.101 735.667 -457.553 737.29C-459.063 739.821 -459.703 742.247 -459.427 744.472L-459.429 744.465C-458.555 751.277 -449.392 755.383 -434.912 755.453L846.797 761.814C858.023 761.87 871.054 759.51 883.48 755.152C895.907 750.801 906.232 744.985 912.562 738.772L1635.24 29.9823C1639.75 25.5626 1641.87 21.2499 1641.41 17.5076C1640.55 10.6976 1631.39 6.58521 1616.91 6.51438L335.201 0.153406C328.736 0.121123 321.674 0.892519 314.473 2.38351C309.766 2.68493 304.827 3.37257 299.82 4.41708C295.062 4.71547 290.112 5.41854 285.165 6.45927C280.467 6.73685 275.511 7.4238 270.477 8.49024C265.808 8.75636 260.871 9.43867 255.85 10.5093C251.146 10.7683 246.211 11.4637 241.277 12.5209C236.585 12.7575 231.58 13.4456 226.479 14.5561C221.89 14.7813 216.984 15.4541 211.975 16.5463C207.333 16.7543 202.346 17.4367 197.249 18.5633C192.665 18.7592 187.722 19.4347 182.658 20.5608C177.998 20.7438 173.014 21.4382 168.033 22.5537C163.392 22.7181 158.406 23.4093 153.421 24.5341C148.87 24.6741 143.888 25.3425 138.752 26.5159C134.164 26.6459 129.185 27.3308 124.206 28.4736C119.705 28.5703 114.713 29.2283 109.538 30.4318C105.291 30.51 100.577 31.1077 95.6745 32.2107C95.4151 32.269 95.1562 32.3286 94.8977 32.3893C90.3649 32.4574 85.3539 33.1346 80.3414 34.32C75.8209 34.3617 70.7861 35.0348 65.7482 36.238C61.253 36.255 56.2077 36.9227 51.1562 38.1418C46.6957 38.1356 41.6513 38.7963 36.596 40.0277C32.1694 39.996 27.1219 40.6477 22.0585 41.8912C13.7943 41.7785 3.19899 44.141 -5.50952 48.4228L-677.774 379.025ZM15.0048 44.015C8.98506 44.666 2.26123 46.5177 -3.50002 49.3489L-675.731 379.942C-682.887 383.459 -687.068 387.784 -686.624 391.221C-686.433 392.774 -685.272 394.077 -683.267 394.982L-673.135 399.583C-671.435 398.296 -669.414 397.035 -667.117 395.848L7.55034 47.2401C9.90445 46.0237 12.4181 44.9443 15.0048 44.015ZM-670.985 400.559C-669.368 399.237 -667.339 397.931 -664.946 396.693L9.68556 48.0885C13.1851 46.2828 17.0904 44.8284 21.0202 43.7832C22.2493 43.8341 23.4096 43.9534 24.4805 44.1436C23.1486 44.7403 21.8537 45.3767 20.6089 46.0506L-650.913 409.672L-670.985 400.559ZM-673.211 402.679C-674.815 404.506 -675.581 406.307 -675.378 407.941C-675.158 409.688 -673.77 411.11 -671.375 412.061L-661.593 415.911C-660.106 414.805 -658.382 413.715 -656.442 412.666L-654.056 411.374L-673.211 402.679ZM-652.032 412.293L-654.161 413.445C-656.157 414.526 -657.891 415.657 -659.33 416.802L-638.117 425.153L-631.702 421.522L-652.032 412.293ZM-629.676 422.442L-635.963 426.001L-614.82 434.323L-609.901 431.419L-629.676 422.442ZM-606.908 429.651L-626.61 420.706L32.8724 47.3908L37.1487 49.3323L-606.908 429.651ZM-607.857 432.346L-612.651 435.177L-592.13 443.255L-588.603 441.087L-607.857 432.346ZM-585.679 439.29L-604.865 430.579L39.1973 50.2624L43.7699 52.3384L-585.679 439.29ZM-586.545 442.021L-589.949 444.114L-569.988 451.971L-567.761 450.548L-586.545 442.021ZM-564.904 448.723L-583.622 440.224L45.8268 53.2723L50.6797 55.4755L-564.904 448.723ZM-565.694 451.487L-567.801 452.832L-548.362 460.485L-547.35 459.814L-565.694 451.487ZM-544.555 457.962L-562.837 449.661L52.7464 56.4139L57.8459 58.7291L-544.555 457.962ZM-545.268 460.759L-546.161 461.351L-529.628 467.859L-545.268 460.759ZM-524.597 467.023L-542.474 458.907L59.9328 59.6766L65.2612 62.0958L-524.597 467.023ZM-505.011 475.916L-522.506 467.973L67.3469 63.0427L72.9025 65.5651L-505.011 475.916ZM-485.773 484.65L-502.905 476.872L75.0193 66.5261L80.747 69.1265L-485.773 484.65ZM-477.958 488.199L-483.64 485.619L82.8859 70.0977L88.8013 72.7833L-466.257 492.805L-477.958 488.199ZM-419.159 514.895L-423.663 512.85L-416.395 515.346L-412.292 516.962L-419.159 514.895ZM-422.199 516.627L-414.184 520.265L-415.603 521.437L-434.433 516.457L-431.251 513.903L-422.199 516.627ZM-448.564 504.659L-439.489 508.778L-449.849 505.661L-448.564 504.659ZM-451.812 503.184L-450.73 503.675L-452.322 504.917L-471.285 499.211L-468.818 497.344L-451.812 503.184ZM-481.348 489.776L-476.745 491.866L-487.242 488.261L-486.527 487.737L-481.348 489.776ZM-411.992 521.261L-406.023 523.97L-413.03 522.117L-411.992 521.261ZM-393.906 526.361L-401.88 522.741L-392.843 525.46L-393.906 526.361ZM-389.614 528.309L-391.692 527.366L-390.335 526.214L-383.773 528.188L-373.731 532.142L-374.056 532.424L-389.614 528.309ZM-392.69 530.023L-394.317 529.592L-398.173 532.862L-379.542 537.201L-378.629 536.406L-392.69 530.023ZM-376.398 537.419L-376.864 537.824L-374.072 538.475L-376.398 537.419ZM-360.017 541.747L-374.051 535.375L-373.678 535.05L-356.026 539.718L-358.654 542.065L-360.017 541.747ZM-363.077 543.466L-361.185 544.325L-365.305 548.003L-384.12 544.141L-379.067 539.742L-363.077 543.466ZM-358.929 545.349L-343.935 552.156L-344.144 552.347L-362.538 548.571L-358.929 545.349ZM-341.666 550.079L-349.025 546.738L-340.248 548.782L-341.666 550.079ZM-330.508 555.146L-339.4 551.108L-337.546 549.411L-320.043 553.488L-323.374 556.61L-330.508 555.146ZM-333.544 556.872L-326.882 559.897L-330.437 563.228L-348.979 559.874L-343.472 554.835L-333.544 556.872ZM-324.603 560.931L-312.328 566.503L-327.602 563.741L-324.603 560.931ZM-307.816 565.448L-321.062 559.434L-304.985 562.734L-307.816 565.448ZM-300.965 568.559L-305.523 566.489L-302.202 563.305L-286.258 566.577L-285.074 567.044L-288.853 570.75L-300.965 568.559ZM-303.992 570.288L-308.612 569.452L-314.5 575.099L-296.25 578.005L-293.321 575.132L-303.992 570.288ZM-291.159 573.011L-292.631 572.343L-290.812 572.672L-291.159 573.011ZM-291.003 576.184L-293.334 578.469L-281.99 580.275L-291.003 576.184ZM-271.47 581.951L-288.841 574.063L-287.95 573.19L-253.745 579.377L-247.947 581.66C-252.073 582.85 -256.262 583.574 -260.046 583.77L-271.47 581.951ZM-274.44 583.703L-273.782 584.002C-270.922 585.304 -266.853 585.824 -262.225 585.648L-221.238 592.174L-220.433 592.491C-217.728 593.555 -214.145 594.019 -210.111 593.946L-167.966 600.656L-167.049 600.971C-164.565 601.826 -161.461 602.235 -158.004 602.242L-114.763 609.127L-113.702 609.446C-111.477 610.117 -108.834 610.469 -105.929 610.534L-61.4129 617.622L-60.3035 617.915C-58.4001 618.42 -56.2348 618.716 -53.8897 618.82L-8.40795 626.062L-6.97386 626.396C-5.38277 626.765 -3.63426 627.003 -1.76876 627.119L45.0056 634.566L46.4236 634.857C47.5966 635.097 48.8435 635.272 50.1507 635.385L92.6855 642.158L-301.991 586.96L-295.286 580.384L-274.44 583.703ZM-254.078 584.72C-251.27 584.206 -248.4 583.491 -245.58 582.591L-230.73 588.437L-254.078 584.72ZM-238.474 579.862L-217.439 583.667L-234.347 577.861L-236.956 579.144C-237.456 579.39 -237.962 579.629 -238.474 579.862ZM-230.074 575.76L-216.197 578.608L-228.4 574.937L-230.074 575.76ZM-230.889 574.25L-232.815 575.197L-235.93 574.558L-249.341 569.953L-230.889 574.25ZM-223.118 572.339L-182.338 583.123L-180.031 583.66L490.301 237.288C497.274 233.683 501.162 229.489 500.733 226.041L500.716 226.046C500.496 224.298 499.108 222.877 496.715 221.932L192.366 102.115L182.222 112.064L444.115 230.963C446.446 232.026 447.804 233.549 448.039 235.358C448.55 239.377 443.677 244.433 435.291 248.547L-223.118 572.339ZM180.038 114.206L440.785 232.589C442.789 233.495 443.967 234.793 444.159 236.346L444.177 236.348C444.605 239.79 440.423 244.114 433.268 247.639L-225.644 571.671L-265.463 561.141L-273.27 558.792L180.038 114.206ZM179.901 111.01L189.943 101.161L182.663 98.2949L172.777 107.776L179.901 111.01ZM170.56 109.903L177.716 113.152L-275.864 558.011L-291.711 553.243L170.56 109.903ZM170.484 106.735L180.268 97.3519L173.078 94.5212L163.452 103.542L170.484 106.735ZM161.2 105.653L168.267 108.862L-294.282 552.469L-310.4 547.62L161.2 105.653ZM161.174 102.508L170.696 93.5836L163.606 90.7921L154.242 99.3611L161.174 102.508ZM151.953 101.455L158.921 104.619L-312.96 546.849L-329.355 541.916L151.953 101.455ZM151.969 98.3291L161.228 89.856L154.236 87.1033L145.138 95.2277L151.969 98.3291ZM142.812 97.3048L149.681 100.423L-331.907 541.148L-342.554 537.945L-348.393 535.94L142.812 97.3048ZM142.891 94.2075L151.883 86.1772L144.998 83.4665L136.167 91.155L142.891 94.2075ZM133.802 93.2143L140.564 96.2846L-350.85 535.096L-367.259 529.461L133.802 93.2143ZM133.935 90.1417L142.659 82.5459L135.905 79.8868L127.343 87.1488L133.935 90.1417ZM124.937 89.1894L131.57 92.201L-369.693 528.626L-386.41 522.885L124.937 89.1894ZM125.119 86.1392L133.573 78.9688L126.936 76.3558L118.645 83.2001L125.119 86.1392ZM116.197 85.2213L122.713 88.1799L-388.829 522.055L-405.867 516.204L116.197 85.2213ZM116.447 82.2023L124.629 75.4477L118.119 72.8845L110.101 79.3209L116.447 82.2023ZM107.608 81.3219L113.999 84.2235L-408.266 515.38L-413.291 513.655L-425.134 508.993L107.608 81.3219ZM107.928 78.3347L115.837 71.9862L109.476 69.4822L101.732 75.5214L107.928 78.3347ZM99.193 77.5014L105.436 80.3357L-427.421 508.092L-444.398 501.41L99.193 77.5014ZM99.5715 74.5406L107.205 68.588L101.001 66.1458L93.5316 71.7984L99.5715 74.5406ZM90.9443 73.7563L97.0326 76.5205L-446.675 500.513L-463.996 493.695L90.9443 73.7563ZM91.3885 70.8255L98.7462 65.2579L92.7193 62.8852L85.5237 68.1629L91.3885 70.8255ZM83.3847 67.1918L90.4659 61.998L84.6316 59.7012L77.7102 64.6156L83.3847 67.1918ZM75.5933 63.6545L82.3988 58.8222L76.7399 56.5943L70.0931 61.1574L75.5933 63.6545ZM68.0076 60.2105L74.538 55.7275L69.1139 53.5921L62.7374 57.8179L68.0076 60.2105ZM60.6504 56.8704L66.9077 52.7235L61.7201 50.6813L55.6124 54.5831L60.6504 56.8704ZM53.5456 53.6448L59.5326 49.8201L54.6009 47.8785L48.7572 51.4709L53.5456 53.6448ZM46.7001 50.537L52.4208 47.0203L47.7811 45.1937L42.1957 48.4919L46.7001 50.537ZM40.1469 47.5618L45.6068 44.3377L42.5727 43.1432C42.2975 43.0349 42.0118 42.9338 41.7161 42.8398C39.7406 43.6606 37.8438 44.576 36.0779 45.5762L35.9424 45.653L40.1469 47.5618ZM33.9044 44.7277C35.5155 43.8265 37.2178 42.9864 38.9824 42.2126C37.9273 42.0478 36.796 41.9467 35.6055 41.9065C34.0083 42.3253 32.4156 42.8091 30.8513 43.354C31.0156 43.4206 31.1765 43.4895 31.3338 43.5607L33.9044 44.7277ZM27.0829 44.8117C25.6329 45.4319 24.228 46.1059 22.8901 46.8301L-648.889 410.591L-628.636 419.786L30.8337 46.4652L28.0224 45.1888C27.7242 45.0533 27.4107 44.9276 27.0829 44.8117ZM28.317 42.5703C28.6646 42.4402 29.0138 42.3126 29.3644 42.1877C28.7827 42.254 28.1951 42.331 27.6031 42.4185C27.8452 42.4659 28.0833 42.5165 28.317 42.5703ZM-236.634 577.075L-238.981 578.229C-239.768 578.616 -240.573 578.985 -241.392 579.334L-250.734 577.645L-270.778 569.755L-238.902 576.297L-236.634 577.075ZM-664.166 424.663C-664.395 422.875 -663.466 420.864 -661.557 418.833L-641.146 426.868L-645.767 429.484C-647.395 430.404 -648.864 431.354 -650.161 432.317L-659.469 429.121C-662.301 428.152 -663.916 426.612 -664.166 424.663ZM-643.376 430.197L-638.992 427.716L-617.775 436.068L-625.666 440.728L-647.8 433.128C-646.532 432.131 -645.05 431.146 -643.376 430.197ZM-623.381 441.513L-615.606 436.922L-595.014 445.029L-601.511 449.023L-623.381 441.513ZM-599.217 449.811L-592.834 445.887L-572.806 453.771L-578.007 457.094L-599.217 449.811ZM-575.708 457.883L-570.619 454.633L-551.117 462.31L-555.109 464.956L-575.708 457.883ZM-552.799 465.75L-548.916 463.176L-529.899 470.663L-532.764 472.63L-552.799 465.75ZM-530.447 473.425L-527.69 471.532L-509.128 478.84L-510.937 480.125L-530.447 473.425ZM-508.61 480.924L-506.907 479.714L-488.775 486.852L-489.595 487.453L-508.61 480.924ZM-350.928 538.204L-348.327 539.228L-341.904 540.926L-345.203 539.793L-350.817 538.104L-350.928 538.204ZM-337.605 546.363L-351.337 540.958L-353.401 540.412L-355.955 542.693L-338.131 546.844L-337.605 546.363ZM-370.884 533.263L-371.394 533.062L-371.452 533.112L-370.884 533.263ZM-333.856 547.84L-335.235 547.297L-335.428 547.473L-333.856 547.84ZM-328.779 546.923L-317.694 551.286L-316.502 550.169L-328.779 546.923ZM-320.6 557.179L-317.503 554.277L-302.377 560.232L-302.967 560.798L-320.6 557.179ZM-300.598 558.016L-300.221 558.164L-300.17 558.116L-300.598 558.016ZM-300.184 561.369L-299.981 561.175L-298.728 561.669L-300.184 561.369ZM-297.826 559.107L-283.248 564.846L-282.905 564.916L-280.614 562.67L-297.452 558.749L-297.826 559.107ZM-264.445 575.165L-282.655 567.996L-285.99 571.268L-264.445 575.165ZM-240.033 581.857L-218.282 590.419L-207.886 592.075C-204.574 591.977 -200.928 591.468 -197.26 590.597L-203.426 588.479L-240.033 581.857ZM-194.552 591.527C-196.872 592.173 -199.207 592.698 -201.498 593.092L-180.048 596.507L-194.552 591.527ZM-172.165 591.856L-187.379 589.104C-186.53 588.764 -185.692 588.407 -184.868 588.034L-172.165 591.856ZM-132.194 594.799L-177.411 584.27L492.455 238.139C500.423 234.016 505.073 229.006 504.579 225.062C504.326 223.027 502.721 221.376 499.929 220.273L194.491 100.031L203.372 91.3204L552.642 211.262C555.474 212.231 557.091 213.777 557.34 215.72L557.338 215.713C557.774 219.116 554.047 223.302 547.349 226.926L-129.702 593.541C-130.51 593.979 -131.342 594.399 -132.194 594.799ZM200.857 90.4565L192.068 99.0769L184.822 96.2245L193.478 87.9227L200.857 90.4565ZM190.991 87.0684L182.427 95.2816L175.272 92.4649L183.702 84.5652L190.991 87.0684ZM181.226 83.7153L172.891 91.5274L165.837 88.7505L174.037 81.2463L181.226 83.7153ZM171.564 80.3971L163.459 87.8144L156.505 85.0769L164.473 77.962L171.564 80.3971ZM162.025 77.1214L154.153 84.1508L147.307 81.4559L155.04 74.7228L162.025 77.1214ZM152.605 73.8866L144.969 80.5353L138.256 77.8928L145.754 71.5337L152.605 73.8866ZM143.323 70.6991L135.924 76.9748L129.33 74.379L136.589 68.3866L143.323 70.6991ZM134.183 67.5604L127.024 73.471L120.558 70.9257L127.577 65.2916L134.183 67.5604ZM125.195 64.4737L118.277 70.0275L111.964 67.5423L118.741 62.2574L125.195 64.4737ZM116.368 61.4425L109.693 66.6481L103.539 64.2256L110.073 59.2808L116.368 61.4425ZM107.715 58.471L101.284 63.3378L95.3091 60.9858L101.601 56.3713L107.715 58.471ZM99.2417 55.5612L93.0555 60.0986L87.2762 57.8234L93.3242 53.5291L99.2417 55.5612ZM90.9846 52.7257L85.0433 56.9444L79.4421 54.7393L85.246 50.755L90.9846 52.7257ZM82.9367 49.962L77.2401 53.8725L71.8766 51.7611L77.4397 48.0743L82.9367 49.962ZM75.1232 47.2788L69.6705 50.8925L64.5469 48.8756L69.8702 45.4749L75.1232 47.2788ZM67.5707 44.6852L62.3593 48.0144L57.4949 46.0994L62.402 43.0828C62.4621 43.0459 62.5223 43.0091 62.5828 42.9723L67.5707 44.6852ZM59.8182 42.4728L55.3149 45.2412L50.7872 43.4588C52.543 42.5108 54.4141 41.6406 56.3551 40.8571C56.6181 40.9321 56.8744 41.0122 57.1234 41.0975L60.2915 42.1855C60.1327 42.2807 59.9748 42.3765 59.8182 42.4728ZM53.4904 40.2714C51.8065 40.9942 50.1768 41.7745 48.6249 42.6075L45.788 41.4907C45.7084 41.4593 45.6279 41.4284 45.5468 41.398C47.0719 40.8803 48.6225 40.418 50.1774 40.0149C51.3378 40.0446 52.447 40.1293 53.4904 40.2714ZM43.6987 40.3512C43.43 40.4463 43.162 40.5428 42.895 40.6409C42.7132 40.6024 42.529 40.5659 42.3427 40.5311C42.7975 40.4651 43.2496 40.4051 43.6987 40.3512ZM-190.442 588.55C-189.381 588.162 -188.335 587.745 -187.313 587.299L-191.64 585.997L-218.927 580.397L-200.456 586.739L-190.442 588.55ZM-650.031 435.116C-652.164 437.305 -653.215 439.477 -652.974 441.383C-652.693 443.533 -650.816 445.19 -647.546 446.176L-638.876 448.785C-637.744 447.946 -636.481 447.113 -635.095 446.296L-628.616 442.47L-650.031 435.116ZM-626.33 443.255L-632.606 446.961C-634.03 447.801 -635.304 448.66 -636.417 449.525L-613.53 456.411L-604.386 450.79L-626.33 443.255ZM-602.092 451.578L-611.129 457.134L-588.655 463.896L-580.812 458.886L-602.092 451.578ZM-578.513 459.675L-586.252 464.619L-564.483 471.169L-557.848 466.771L-578.513 459.675ZM-555.538 467.565L-562.071 471.895L-540.95 478.25L-535.439 474.467L-555.538 467.565ZM-533.123 475.262L-538.534 478.977L-518.016 485.15L-513.554 481.982L-533.123 475.262ZM-511.227 482.781L-515.591 485.88L-495.636 491.884L-492.154 489.331L-511.227 482.781ZM-489.801 490.139L-493.186 492.621L-473.745 498.471L-471.183 496.532L-489.801 490.139ZM-271.353 562.394L-274.98 561.149L-268.755 562.795L-265.75 563.699L-271.353 562.394ZM-309.919 551.91L-297.976 556.011L-298.13 556.159L-315.256 552.171L-313.864 550.867L-309.919 551.91ZM-274.309 564.138L-255.905 570.458L-280.101 565.492L-277.875 563.308L-274.309 564.138ZM-165.06 598.894L-186.441 591.552L-153.182 597.568L-146.868 599.468C-149.962 600.043 -152.987 600.355 -155.762 600.374L-165.06 598.894ZM-148.887 601.469C-147.171 601.192 -145.43 600.842 -143.686 600.425L-130.473 604.401L-148.887 601.469ZM-136.489 598.31L-130.027 599.478L-135.622 597.999C-135.781 598.057 -135.94 598.115 -136.1 598.172C-136.229 598.218 -136.359 598.264 -136.489 598.31ZM-129.529 595.42L-94.1359 603.662L-85.0171 605.533C-81.4881 604.367 -78.0809 602.904 -75.0539 601.191L604.399 216.57C610.838 212.923 614.424 208.747 613.998 205.385L613.999 205.392C613.736 203.236 611.858 201.58 608.57 200.591L213.241 81.6413L205.452 89.2804L555.76 209.578C559.027 210.703 560.916 212.486 561.204 214.743C561.695 218.674 557.369 223.529 549.634 227.719L-127.417 594.334C-128.106 594.708 -128.811 595.07 -129.529 595.42ZM202.937 88.4166L210.642 80.8593L203.184 78.615L195.593 85.8947L202.937 88.4166ZM193.105 85.0404L200.612 77.8412L193.242 75.6239L185.852 82.5496L193.105 85.0404ZM183.377 81.6997L190.682 74.8536L183.413 72.6662L176.225 79.2436L183.377 81.6997ZM173.752 78.3944L180.853 71.8961L173.682 69.7383L166.7 75.9727L173.752 78.3944ZM164.253 75.1322L171.147 68.9757L164.083 66.8501L157.309 72.7477L164.253 75.1322ZM154.874 71.9114L161.559 66.0908L154.63 64.0057L148.065 69.5733L154.874 71.9114ZM145.635 68.7387L152.109 63.2473L145.297 61.1978L138.945 66.4415L145.635 68.7387ZM136.539 65.6153L142.801 60.4465L136.117 58.4356L129.98 63.3626L136.539 65.6153ZM127.598 62.5448L133.644 57.6914L127.115 55.7269L121.193 60.3452L127.598 62.5448ZM118.82 59.5303L124.649 54.9849L118.282 53.0691L112.577 57.3864L118.82 59.5303ZM110.219 56.5765L115.829 52.3311L109.646 50.4706L104.158 54.4954L110.219 56.5765ZM101.799 53.6853L107.19 49.7316L101.207 47.9317L95.9386 51.6727L101.799 53.6853ZM93.5991 50.8693L98.7695 47.1981L92.9694 45.4529L87.9202 48.9191L93.5991 50.8693ZM85.6109 48.1261L90.5608 44.7282L85.0092 43.0578L80.1771 46.2601L85.6109 48.1261ZM77.8606 45.4646L82.5904 42.33L77.3504 40.7533C76.745 41.1023 76.157 41.4588 75.588 41.8223L72.6743 43.6836L77.8606 45.4646ZM70.3748 42.8939L72.9106 41.2739C73.5713 40.8519 74.2543 40.4381 74.9575 40.0334L71.6726 39.0449C71.4555 38.9795 71.2338 38.9177 71.0078 38.8592C69.147 39.5889 67.3454 40.3944 65.64 41.268L70.3748 42.8939ZM63.3542 40.483C64.8486 39.7119 66.4092 38.9866 68.0168 38.3113C66.9971 38.1902 65.9214 38.1201 64.8018 38.0991C63.2814 38.4872 61.7646 38.9301 60.2701 39.4239L63.3542 40.483ZM57.4997 38.6941C57.6932 38.6245 57.8871 38.5557 58.0815 38.4876C57.7549 38.5285 57.4267 38.5726 57.0974 38.6197C57.2325 38.6436 57.3667 38.6684 57.4997 38.6941ZM-138.385 597.268C-138.846 597.423 -139.31 597.572 -139.774 597.715L-150.137 595.841L-163.999 591.67L-144.152 595.743L-138.385 597.268ZM-641.83 458.123C-642.089 456.09 -640.974 453.805 -638.669 451.496L-616.423 458.19L-624.422 463.107C-625.619 463.843 -626.72 464.591 -627.72 465.344L-635.636 463.25C-639.395 462.26 -641.535 460.487 -641.83 458.123ZM-621.838 463.717L-614.022 458.912L-591.473 465.696L-601.695 472.226L-625.172 466.018C-624.181 465.243 -623.067 464.473 -621.838 463.717ZM-599.194 472.887L-589.07 466.419L-567.232 472.99L-576.237 478.958L-599.194 472.887ZM-573.73 479.621L-564.819 473.716L-543.632 480.091L-551.508 485.498L-573.73 479.621ZM-549 486.161L-541.216 480.818L-520.635 487.01L-527.46 491.857L-549 486.161ZM-524.945 492.522L-518.21 487.74L-498.195 493.762L-504.042 498.05L-524.945 492.522ZM-501.503 498.721L-495.746 494.499L-476.248 500.365L-481.178 504.096L-501.503 498.721ZM-478.631 504.769L-473.788 501.105L-454.771 506.827L-458.843 510.002L-478.631 504.769ZM-456.284 510.679L-452.298 507.571L-433.73 513.157L-436.997 515.779L-456.284 510.679ZM-191.093 583.518L-188.55 584.283L-183.825 585.253L-185.17 584.897L-191.093 583.518ZM-131.153 601.553L-111.815 607.371L-103.672 608.668C-101.53 608.702 -99.2287 608.558 -96.8506 608.251L-102.755 606.69L-131.153 601.553ZM-93.0086 609.267C-94.1059 609.487 -95.1981 609.68 -96.2794 609.845L-82.5651 612.029L-93.0086 609.267ZM-37.1264 615.363L-81.9607 606.161C-78.6808 604.96 -75.5313 603.538 -72.6758 601.922L606.776 217.295C614.202 213.096 618.338 208.277 617.844 204.406C617.538 201.922 615.365 200.014 611.589 198.876L215.285 79.6374L222.119 72.9343L664.514 189.916C668.253 190.904 670.395 192.684 670.691 195.047L670.689 195.041C671.12 198.423 667.762 202.494 661.466 206.21L-20.3881 608.844C-25.2555 611.717 -31.1997 613.962 -37.1264 615.363ZM219.444 72.2269L212.686 78.8554L205.262 76.6218L211.919 70.2371L219.444 72.2269ZM209.271 69.5368L202.69 75.848L195.357 73.6417L201.835 67.5707L209.271 69.5368ZM199.198 66.8732L192.797 72.8714L185.566 70.6957L191.862 64.9335L199.198 66.8732ZM189.224 64.2357L183.006 69.9255L175.875 67.7799L181.987 62.3221L189.224 64.2357ZM179.372 61.6308L173.34 67.0173L166.318 64.9044L172.243 59.7455L179.372 61.6308ZM169.638 59.0568L163.794 64.145L156.908 62.0732L162.645 57.2076L169.638 59.0568ZM160.042 56.5192L154.387 61.3148L147.621 59.2791L153.167 54.7013L160.042 56.5192ZM150.586 54.0189L145.125 58.5279L138.489 56.5314L143.841 52.2352L150.586 54.0189ZM141.283 51.5589L136.016 55.7872L129.537 53.838L134.694 49.8166L141.283 51.5589ZM132.142 49.1417L127.071 53.096L120.757 51.1962L125.717 47.4428L132.142 49.1417ZM123.177 46.771L118.304 50.4581L112.176 48.6145L116.939 45.1215L123.177 46.771ZM114.393 44.4483L109.72 47.8755L103.797 46.0932L108.36 42.8531L114.393 44.4483ZM105.831 42.1842L101.359 45.3597L95.6202 43.6331L99.9831 40.638L105.831 42.1842ZM97.4822 39.9767L93.2116 42.9084L87.7253 41.2578L88.7584 40.5731C89.8095 39.8762 90.9288 39.2024 92.107 38.5553L97.4822 39.9767ZM85.9859 40.0797L85.3065 40.53L80.4967 39.0828C82.1277 38.2847 83.8497 37.5389 85.6396 36.8545C85.8369 36.9004 86.0315 36.9487 86.223 36.9994L89.6049 37.8937C88.3347 38.5965 87.1252 39.3265 85.9859 40.0797ZM82.5158 36.3469C80.9852 36.979 79.5049 37.6509 78.0868 38.3577L75.0141 37.4332C76.4645 36.9671 77.9336 36.5471 79.406 36.1766C80.4831 36.1895 81.523 36.2457 82.5158 36.3469ZM72.4356 36.6199C72.3872 36.6367 72.3387 36.6536 72.2904 36.6705C72.2322 36.6908 72.1742 36.7112 72.1161 36.7317L72.0562 36.7211L71.9953 36.7106C71.9615 36.7047 71.9274 36.6989 71.8934 36.6932C72.0112 36.6767 72.1289 36.6606 72.2463 36.6449C72.3094 36.6364 72.3726 36.6281 72.4356 36.6199ZM-627.391 467.961C-629.819 470.376 -631.005 472.768 -630.738 474.878C-630.417 477.423 -627.932 479.354 -623.742 480.335L-616.691 481.977C-615.791 481.287 -614.808 480.602 -613.747 479.925L-604.496 474.015L-627.391 467.961ZM-601.995 474.676L-611.07 480.474C-612.161 481.171 -613.158 481.879 -614.055 482.591L-590.126 488.163L-578.965 480.766L-601.995 474.676ZM-576.458 481.429L-587.531 488.768L-564.19 494.203L-554.168 487.323L-576.458 481.429ZM-551.659 487.987L-561.595 494.807L-539.019 500.064L-530.055 493.699L-551.659 487.987ZM-527.54 494.364L-536.42 500.67L-514.555 505.761L-506.575 499.908L-527.54 494.364ZM-504.037 500.58L-511.934 506.372L-490.715 511.313L-483.654 505.969L-504.037 500.58ZM-481.106 506.643L-488.086 511.925L-467.466 516.726L-461.264 511.89L-481.106 506.643ZM-458.705 512.567L-464.827 517.341L-444.762 522.013L-439.365 517.681L-458.705 512.567ZM-436.801 518.359L-442.12 522.629L-422.563 527.183L-417.922 523.351L-436.801 518.359ZM-415.348 524.031L-419.913 527.8L-400.839 532.241L-396.908 528.907L-415.348 524.031ZM-99.8406 604.938L-101.541 604.489L-97.3357 605.352L-96.5729 605.53L-99.8406 604.938ZM-58.5988 615.845L-72.5697 612.15L-52.7446 615.736L-47.6219 616.929C-48.9712 617.003 -50.2798 617.017 -51.5314 616.97L-58.5988 615.845ZM-43.613 618.231C-43.2943 618.185 -42.9747 618.137 -42.6541 618.086L-38.6197 619.026L-43.613 618.231ZM-33.6158 616.083L0.596796 623.106L10.0688 624.819C18.3928 623.668 27.4714 620.683 34.2626 616.507L718.518 195.862C724.592 192.126 727.825 188.06 727.401 184.705L727.418 184.701C727.097 182.156 724.61 180.218 720.439 179.239L230.132 65.0756L224.139 70.9534L667.456 188.179C671.755 189.318 674.211 191.352 674.554 194.064C675.05 197.942 671.186 202.614 663.973 206.877L-17.898 609.515C-22.5243 612.247 -28.0028 614.484 -33.6158 616.083ZM221.464 70.246L227.387 64.4365L219.808 62.6717L213.975 68.2657L221.464 70.246ZM211.326 67.5654L217.089 62.0387L209.599 60.2948L203.929 65.6091L211.326 67.5654ZM201.291 64.9116L206.89 59.664L199.501 57.9434L193.995 62.9823L201.291 64.9116ZM191.356 62.2845L196.789 57.3121L189.498 55.6145L184.16 60.3817L191.356 62.2845ZM181.545 59.6904L186.811 54.9887L179.627 53.3162L174.459 57.8165L181.545 59.6904ZM171.854 57.1277L176.948 52.6923L169.903 51.0518L164.906 55.2903L171.854 57.1277ZM162.302 54.6019L167.223 50.4279L160.297 48.8152L155.474 52.7964L162.302 54.6019ZM152.894 52.1141L157.639 48.1964L150.843 46.614L146.197 50.3434L152.894 52.1141ZM143.64 49.6671L148.207 46.0003L141.57 44.4548L137.103 47.9384L143.64 49.6671ZM134.55 47.2635L138.938 43.842L132.467 42.3352L128.18 45.579L134.55 47.2635ZM125.639 44.9073L129.845 41.7248L123.564 40.2623L119.459 43.273L125.639 44.9073ZM116.913 42.5998L120.935 39.6501L114.862 38.2362L110.941 41.0205L116.913 42.5998ZM108.411 40.3517L112.171 37.682L112.248 37.6276L106.845 36.3694C105.362 37.1452 103.954 37.9658 102.641 38.8258L108.411 40.3517ZM100.15 38.167C101.441 37.3313 102.811 36.5291 104.246 35.7643L100.755 34.9515C100.598 34.915 100.44 34.8799 100.279 34.8462C98.5778 35.4812 96.9345 36.169 95.3674 36.9025L100.15 38.167ZM92.8279 36.2309C94.1769 35.5818 95.5779 34.9625 97.0215 34.3769C96.0438 34.2921 95.0255 34.2482 93.9747 34.2433C92.5519 34.5973 91.1472 34.9915 89.7696 35.4223L92.8279 36.2309ZM86.7272 34.7521L86.7341 34.7497L86.7223 34.7513L86.7272 34.7521ZM-619.647 491.626C-619.92 489.463 -618.706 486.999 -616.223 484.513L-592.836 489.959L-603.073 496.743C-604.026 497.374 -604.913 498.013 -605.731 498.655L-611.835 497.402C-616.526 496.435 -619.292 494.386 -619.647 491.626ZM-600.317 497.241L-590.241 490.564L-566.83 496.016L-578.744 504.194L-603.014 499.213C-602.197 498.55 -601.297 497.891 -600.317 497.241ZM-576.068 504.743L-564.235 496.62L-541.594 501.892L-552.439 509.593L-576.068 504.743ZM-549.762 510.143L-538.995 502.498L-517.068 507.604L-526.921 514.831L-549.762 510.143ZM-524.223 515.385L-514.447 508.215L-493.169 513.17L-502.098 519.926L-524.223 515.385ZM-499.393 520.481L-490.541 513.782L-469.865 518.597L-477.93 524.887L-499.393 520.481ZM-475.217 525.443L-467.226 519.211L-447.108 523.896L-454.366 529.723L-475.217 525.443ZM-451.652 530.28L-444.466 524.512L-424.859 529.078L-431.36 534.445L-451.652 530.28ZM-428.639 535.004L-422.209 529.695L-403.087 534.148L-408.878 539.06L-428.639 535.004ZM-406.142 539.621L-400.421 534.769L-381.745 539.118L-386.866 543.578L-406.142 539.621ZM-5.86842 624.216L-5.53364 624.294L-4.73078 624.422L-5.86842 624.216ZM58.6325 633.603L14.6164 625.642C22.504 623.955 30.5285 620.979 36.8261 617.108L721.083 196.469C728.023 192.201 731.731 187.557 731.245 183.72C730.892 180.815 728.05 178.598 723.27 177.489L232.128 63.1178L237.391 57.9566L776.331 168.57C781.02 169.531 783.789 171.587 784.143 174.347L784.16 174.342C784.58 177.677 781.455 181.742 775.583 185.495L88.9253 624.146C80.626 629.452 68.6486 633.025 58.6325 633.603ZM234.582 57.38L229.383 62.4786L221.841 60.7221L226.957 55.8151L234.582 57.38ZM224.174 55.2439L219.122 60.0891L211.67 58.3538L216.639 53.6973L224.174 55.2439ZM213.865 53.1279L208.961 57.723L201.612 56.0115L206.43 51.6021L213.865 53.1279ZM203.652 51.0318L198.9 55.3801L191.651 53.692L196.316 49.5263L203.652 51.0318ZM193.561 48.9608L188.964 53.0662L181.824 51.4036L186.334 47.4774L193.561 48.9608ZM183.586 46.9134L179.145 50.7797L172.145 49.1497L176.497 45.4586L183.586 46.9134ZM173.748 44.8942L169.466 48.5257L162.588 46.924L166.779 43.4639L173.748 44.8942ZM164.05 42.9038L159.93 46.3052L153.185 44.7344L157.213 41.5006L164.05 42.9038ZM154.505 40.9448L150.549 44.1206L143.964 42.5873L147.828 39.5744L154.505 40.9448ZM145.123 39.0191L141.333 41.9745L134.917 40.4805L138.614 37.6832L145.123 39.0191ZM135.917 37.1298L132.296 39.8701L126.074 38.4212L128.236 36.8351C128.693 36.4997 129.164 36.169 129.649 35.8432L135.917 37.1298ZM125.262 36.4766L123.445 37.809L117.568 36.4403C118.837 35.6607 120.189 34.9099 121.611 34.1935L126.957 35.2907C126.374 35.6797 125.809 36.0752 125.262 36.4766ZM118.885 33.634C117.518 34.3409 116.21 35.0763 114.973 35.836L110.229 34.7314C111.752 34.05 113.328 33.4137 114.94 32.8273C115.062 32.8505 115.184 32.8744 115.304 32.899L118.885 33.634ZM111.565 32.3942C110.201 32.9358 108.865 33.5091 107.567 34.1116L104.537 33.4059C105.869 32.9998 107.225 32.6263 108.599 32.2885C109.623 32.2882 110.613 32.3233 111.565 32.3942ZM-605.138 501.13C-607.638 503.674 -608.863 506.194 -608.588 508.39C-608.216 511.376 -605.134 513.535 -599.924 514.483L-594.867 515.397C-594.097 514.779 -593.263 514.161 -592.366 513.546L-581.383 506.006L-605.138 501.13ZM-578.707 506.555L-589.549 513.998C-590.469 514.63 -591.315 515.265 -592.084 515.901L-567.568 520.335L-555.01 511.418L-578.707 506.555ZM-552.333 511.968L-564.818 520.833L-540.982 525.144L-529.427 516.669L-552.333 511.968ZM-526.729 517.223L-538.212 525.645L-515.165 529.814L-504.543 521.776L-526.729 517.223ZM-501.839 522.331L-512.39 530.316L-490.07 534.353L-480.318 526.748L-501.839 522.331ZM-477.604 527.305L-487.288 534.856L-465.639 538.772L-456.699 531.596L-477.604 527.305ZM-453.984 532.153L-462.857 539.276L-441.821 543.081L-433.641 536.328L-453.984 532.153ZM-430.92 536.887L-439.034 543.585L-418.576 547.285L-411.11 540.953L-430.92 536.887ZM-408.374 541.514L-415.775 547.792L-395.847 551.396L-389.051 545.48L-408.374 541.514ZM-386.305 546.044L-393.037 551.905L-373.609 555.419L-367.445 549.915L-386.305 546.044ZM-364.678 550.482L-370.779 555.931L-351.809 559.362L-346.241 554.266L-364.678 550.482ZM64.335 634.635C73.9212 633.053 84.0927 629.499 91.6042 624.701L778.277 186.038C784.948 181.778 788.499 177.155 788.023 173.359C787.632 170.219 784.472 167.886 779.136 166.791L239.375 56.0101L243.988 51.4862L832.258 157.9C837.467 158.841 840.55 161.007 840.922 163.993L840.924 164C841.358 167.316 838.341 171.381 832.653 175.148L143.593 631.805C133.085 638.768 116.245 643.039 104.755 641.854L100.522 641.18L64.335 634.635ZM236.567 55.4337L241.12 50.9674L233.457 49.5812L228.979 53.8763L236.567 55.4337ZM226.196 53.3051L230.615 49.067L223.042 47.6971L218.699 51.7666L226.196 53.3051ZM215.925 51.1971L220.207 47.1843L212.735 45.8326L208.531 49.6796L215.925 51.1971ZM205.752 49.1093L209.894 45.3189L202.522 43.9851L198.459 47.6125L205.752 49.1093ZM195.704 47.0471L199.704 43.4755L192.44 42.1614L188.521 45.5728L195.704 47.0471ZM185.773 45.0088L189.628 41.6528L182.504 40.3641L178.732 43.5636L185.773 45.0088ZM175.982 42.9992L179.689 39.8549L172.685 38.588L169.062 41.579L175.982 42.9992ZM166.333 41.0189L169.89 38.0824L163.019 36.8395L159.548 39.6262L166.333 41.0189ZM156.84 39.0705L160.244 36.3375L153.535 35.1239L150.217 37.7112L156.84 39.0705ZM147.512 37.156L150.761 34.6221L144.443 33.4791C143.359 34.1628 142.333 34.8691 141.373 35.5953L141.061 35.8319L147.512 37.156ZM138.364 35.2785L138.371 35.2732C139.41 34.4871 140.518 33.722 141.686 32.9806L136.381 32.0209C135.031 32.6731 133.731 33.3585 132.493 34.0734L138.364 35.2785ZM129.797 33.5201C130.992 32.823 132.241 32.1506 133.533 31.5056L129.851 30.8397C129.82 30.834 129.789 30.8284 129.757 30.8228C129.708 30.8139 129.658 30.8052 129.608 30.7966C128.064 31.3458 126.563 31.935 125.116 32.5594L129.797 33.5201ZM122.305 31.9826C123.529 31.4305 124.79 30.9009 126.082 30.3961C125.171 30.3401 124.228 30.3149 123.256 30.3204C121.947 30.6374 120.64 30.9895 119.344 31.3747L122.305 31.9826ZM-597.548 525.151C-597.834 522.897 -596.649 520.373 -594.154 517.8L-570.119 522.147L-581.691 530.364C-582.541 530.967 -583.332 531.573 -584.064 532.178L-587.997 531.552C-593.742 530.634 -597.14 528.359 -597.548 525.151ZM-578.798 530.759L-567.37 522.645L-543.469 526.968L-556.546 536.56L-581.216 532.632C-580.482 532.007 -579.675 531.382 -578.798 530.759ZM-553.708 537.012L-540.698 527.469L-517.59 531.649L-529.723 540.831L-553.708 537.012ZM-526.882 541.283L-514.815 532.151L-492.437 536.199L-503.691 544.975L-526.882 541.283ZM-500.845 545.429L-489.655 536.703L-467.951 540.629L-478.385 549.005L-500.845 545.429ZM-475.541 549.458L-465.169 541.132L-444.081 544.947L-453.748 552.928L-475.541 549.458ZM-450.9 553.381L-441.294 545.451L-420.787 549.16L-429.736 556.751L-450.9 553.381ZM-426.876 557.206L-417.986 549.667L-398.011 553.28L-406.285 560.485L-426.876 557.206ZM-403.416 560.942L-395.2 553.789L-375.728 557.311L-383.369 564.134L-403.416 560.942ZM-380.48 564.594L-372.898 557.823L-353.886 561.262L-360.928 567.707L-380.48 564.594ZM-358.04 568.167L-351.055 561.774L-332.472 565.136L-338.95 571.206L-358.04 568.167ZM-336.059 571.666L-329.637 565.649L-311.454 568.938L-317.398 574.638L-336.059 571.666ZM155.803 649.982L114.536 643.412C125.574 642.048 137.804 637.959 146.347 632.296L835.407 175.639C841.842 171.371 845.269 166.761 844.784 163.003C844.354 159.627 840.86 157.176 834.952 156.107L245.951 49.5616L249.99 45.6003L888.182 147.215C893.944 148.129 897.324 150.401 897.733 153.616L897.75 153.612C898.191 156.962 895.333 160.933 889.751 164.765L198.29 639.434C186.985 647.188 167.948 651.914 155.803 649.982ZM247.067 45.135L243.083 49.0428L235.457 47.6634L239.371 43.9096L247.067 45.135ZM236.473 43.4482L232.614 47.1492L225.08 45.7863L228.868 42.2372L236.473 43.4482ZM225.977 41.7769L222.246 45.2735L214.814 43.9293L218.472 40.582L225.977 41.7769ZM215.575 40.1206L211.974 43.4155L204.644 42.0896L208.17 38.9416L215.575 40.1206ZM205.294 38.4838L201.827 41.58L194.607 40.274L197.998 37.322L205.294 38.4838ZM195.127 36.8649L191.796 39.7654L184.719 38.4853L187.973 35.7258L195.127 36.8649ZM185.097 35.2679L181.904 37.9761L174.95 36.7182L178.064 34.148L185.097 35.2679ZM175.207 33.6932L172.155 36.2126L165.336 34.9791L167.664 33.1109C167.878 32.9387 168.097 32.7672 168.319 32.5965L175.207 33.6932ZM164.571 32.8641L162.562 34.4772L155.961 33.2832C156.986 32.554 158.08 31.8418 159.235 31.1501L165.49 32.146C165.177 32.384 164.871 32.6234 164.571 32.8641ZM156.39 30.6971C155.272 31.3764 154.207 32.073 153.202 32.7841L147.413 31.7368C148.606 31.0847 149.85 30.4583 151.135 29.8603L156.39 30.6971ZM148.174 29.3889C146.954 29.981 145.769 30.5963 144.627 31.2329L140.006 30.397C141.398 29.8189 142.827 29.2753 144.281 28.7692C144.315 28.7745 144.348 28.7797 144.382 28.7851L148.174 29.3889ZM140.608 28.4049C139.4 28.8682 138.213 29.3545 137.05 29.8624L134.142 29.3362C134.906 29.1149 135.677 28.9035 136.454 28.7027C136.917 28.583 137.379 28.4679 137.84 28.3572C138.784 28.3453 139.709 28.3609 140.608 28.4049ZM-583.233 534.536C-585.677 537.128 -586.828 539.66 -586.541 541.922C-586.097 545.359 -582.401 547.748 -576.087 548.626L-573.335 549.011C-572.617 548.394 -571.84 547.778 -571.003 547.164L-559.039 538.388L-583.233 534.536ZM-556.201 538.84L-568.045 547.527C-568.903 548.156 -569.692 548.788 -570.41 549.42L-545.65 552.883L-532.153 542.669L-556.201 538.84ZM-529.312 543.121L-542.748 553.288L-518.67 556.656L-506.061 546.823L-529.312 543.121ZM-503.214 547.277L-515.763 557.062L-492.479 560.319L-480.699 550.862L-503.214 547.277ZM-477.854 551.315L-489.576 560.725L-467.015 563.88L-456.008 554.793L-477.854 551.315ZM-453.16 555.247L-464.11 564.286L-442.229 567.347L-431.945 558.624L-453.16 555.247ZM-429.085 559.08L-439.312 567.755L-418.051 570.728L-408.446 562.366L-429.085 559.08ZM-405.577 562.823L-415.126 571.137L-394.45 574.029L-385.483 566.022L-405.577 562.823ZM-382.595 566.482L-391.507 574.44L-371.364 577.258L-362.999 569.602L-382.595 566.482ZM-360.112 570.062L-368.424 577.669L-348.777 580.416L-340.979 573.108L-360.112 570.062ZM-338.088 573.569L-345.835 580.828L-326.65 583.511L-319.388 576.546L-338.088 573.569ZM-316.49 577.008L-323.701 583.924L-304.958 586.545L-298.202 579.919L-316.49 577.008ZM163.969 652.127L209.091 658.438C221.925 660.231 241.596 655.138 252.954 647.08L946.816 154.398C952.233 150.553 954.985 146.59 954.562 143.242L954.546 143.253C954.1 139.81 950.406 137.428 944.091 136.543L255.462 40.2331L251.942 43.6858L890.819 145.41C897.296 146.446 901.141 149.004 901.596 152.633C902.07 156.423 898.862 160.894 892.568 165.217L201.108 639.893C191.386 646.566 176.544 651.254 163.969 652.127ZM249.019 43.2205L252.489 39.8173L244.764 38.7369L241.361 42.0011L249.019 43.2205ZM238.463 41.5398L241.816 38.3245L234.182 37.2569L230.897 40.3351L238.463 41.5398ZM228.006 39.8747L231.239 36.8453L223.707 35.7918L220.543 38.6865L228.006 39.8747ZM217.646 38.2251L220.756 35.3791L213.323 34.3396L210.284 37.053L217.646 38.2251ZM207.409 36.5952L210.394 33.93L203.07 32.9057L200.159 35.4407L207.409 36.5952ZM197.288 34.9836L200.144 32.4965L192.964 31.4923L190.182 33.8522L197.288 34.9836ZM187.306 33.3943L190.032 31.0822L183.111 30.1142C182.304 30.6915 181.539 31.2784 180.819 31.8734L180.323 32.2825L187.306 33.3943ZM177.467 31.8277L177.663 31.6655C178.465 31.004 179.317 30.3513 180.216 29.7094L174.021 28.843C172.92 29.4711 171.868 30.1168 170.872 30.7776L177.467 31.8277ZM168.048 30.328C169.016 29.683 170.032 29.0508 171.092 28.4333L165.877 27.704C164.656 28.2546 163.474 28.8271 162.338 29.4188L168.048 30.328ZM159.441 28.9576C160.52 28.3796 161.638 27.8172 162.791 27.2724L158.95 26.7351C157.576 27.2032 156.222 27.7038 154.898 28.2342L159.441 28.9576ZM151.802 27.7412C152.896 27.2762 154.011 26.8294 155.142 26.4023C154.283 26.3686 153.399 26.3593 152.495 26.3742C151.317 26.6534 150.141 26.9594 148.972 27.2906L151.802 27.7412ZM-575.552 558.698C-575.836 556.45 -574.724 553.918 -572.362 551.326L-548.08 554.722L-560.312 563.977C-561.151 564.612 -561.93 565.25 -562.645 565.887L-564.16 565.702C-570.932 564.869 -575.083 562.316 -575.552 558.698ZM-557.292 564.295L-545.178 555.128L-521.039 558.504L-534.868 569.288L-559.657 566.253C-558.942 565.6 -558.153 564.946 -557.292 564.295ZM-531.905 569.651L-518.133 558.911L-494.792 562.175L-507.783 572.604L-531.905 569.651ZM-504.825 572.966L-491.888 562.581L-469.273 565.744L-481.483 575.824L-504.825 572.966ZM-478.525 576.186L-466.368 566.151L-444.435 569.218L-455.915 578.955L-478.525 576.186ZM-452.946 579.318L-441.519 569.626L-420.208 572.607L-431.003 582.005L-452.946 579.318ZM-428.027 582.369L-417.284 573.016L-396.561 575.914L-406.713 584.979L-428.027 582.369ZM-403.719 585.346L-393.619 576.326L-373.431 579.149L-382.977 587.885L-403.719 585.346ZM-379.987 588.251L-370.491 579.56L-350.802 582.314L-359.778 590.726L-379.987 588.251ZM-356.786 591.092L-347.86 582.726L-328.635 585.415L-337.071 593.506L-356.786 591.092ZM-334.075 593.873L-325.686 585.827L-306.904 588.454L-314.831 596.229L-334.075 593.873ZM-311.817 596.598L-303.937 588.869L194.88 658.636L-311.817 596.598ZM262.38 666.9L211.334 660.651C225.521 661.037 244.435 655.596 255.836 647.5L949.698 154.818C955.793 150.491 958.88 146.039 958.41 142.269C957.915 138.398 953.752 135.718 946.654 134.729L257.406 38.3267L260.474 35.3175L1000.01 125.859C1006.79 126.691 1010.94 129.238 1011.39 132.867L1011.41 132.862C1011.83 136.204 1009.17 140.171 1003.9 144.033L307.635 654.72C296.226 663.096 275.922 668.558 262.38 666.9ZM257.454 34.9478L254.433 37.9109L246.747 36.8358L249.704 33.9991L257.454 34.9478ZM246.709 33.6322L243.798 36.4235L236.204 35.3613L239.05 32.6946L246.709 33.6322ZM236.059 32.3284L233.262 34.9497L225.771 33.9022L228.502 31.4033L236.059 32.3284ZM225.502 31.0359L222.821 33.4894L215.432 32.4561L218.045 30.123L225.502 31.0359ZM215.066 29.7583L212.503 32.0464L205.226 31.0286L207.11 29.3889C207.313 29.2119 207.52 29.0357 207.731 28.8602L215.066 29.7583ZM203.879 29.2448L202.3 30.6194L195.213 29.628C196.066 28.961 196.974 28.3044 197.933 27.6607L204.763 28.4969C204.462 28.7448 204.167 28.9941 203.879 29.2448ZM194.959 27.2966C194.027 27.9275 193.139 28.5692 192.297 29.2202L185.812 28.3131C186.779 27.7108 187.791 27.1217 188.844 26.5479L194.959 27.2966ZM185.818 26.1775C184.811 26.7417 183.839 27.3186 182.906 27.9067L177.261 27.1173C178.351 26.575 179.477 26.0496 180.637 25.5432L185.818 26.1775ZM177.434 25.1511C176.346 25.652 175.287 26.1679 174.26 26.6974L169.781 26.0711C171.035 25.5856 172.319 25.1229 173.631 24.6855L177.434 25.1511ZM169.665 24.3888C168.601 24.7836 167.556 25.1933 166.533 25.6168L163.814 25.2365C164.926 24.9293 166.044 24.6443 167.163 24.3826C168.011 24.3641 168.846 24.3659 169.665 24.3888ZM-561.541 568.163C-563.8 570.739 -564.86 573.252 -564.58 575.478C-564.087 579.343 -559.604 582.001 -552.249 582.782L-551.999 582.809C-551.269 582.132 -550.47 581.455 -549.605 580.78L-537.24 571.138L-561.541 568.163ZM-534.277 571.5L-546.539 581.063C-547.424 581.752 -548.23 582.443 -548.956 583.133L-524.19 585.775L-510.096 574.461L-534.277 571.5ZM-507.138 574.823L-521.18 586.096L-497.044 588.67L-483.74 577.687L-507.138 574.823ZM-480.782 578.049L-494.036 588.991L-470.684 591.482L-458.118 580.824L-480.782 578.049ZM-455.15 581.187L-467.668 591.804L-445.031 594.218L-433.156 583.88L-455.15 581.187ZM-430.181 584.244L-442.007 594.541L-420.044 596.883L-408.818 586.859L-430.181 584.244ZM-405.825 587.226L-417.003 597.208L-395.653 599.485L-385.037 589.771L-405.825 587.226ZM-382.048 590.137L-392.617 599.809L-371.835 602.026L-361.795 592.616L-382.048 590.137ZM-358.803 592.982L-368.799 602.349L-348.545 604.51L-339.047 595.401L-358.803 592.982ZM-336.051 595.767L-345.505 604.834L-325.753 606.941L-316.768 598.128L-336.051 595.767ZM-313.754 598.497L-322.696 607.267L315.667 675.356C329.916 676.872 350.837 671.045 362.301 662.373L1060.97 133.673C1066.09 129.8 1068.67 125.825 1068.25 122.483L1068.24 122.495C1067.75 118.637 1063.26 115.972 1055.92 115.186L265.05 30.8296L262.396 33.4323L1002.5 124.043C1010.09 124.97 1014.73 127.831 1015.25 131.89C1015.74 135.635 1012.74 140.084 1006.84 144.408L310.578 655.095C297.8 664.466 275.053 670.582 259.891 668.723L-313.754 598.497ZM259.376 33.0625L261.986 30.5028L254.214 29.6738L251.665 32.1185L259.376 33.0625ZM248.669 31.7517L251.174 29.3496L243.493 28.5303L241.051 30.819L248.669 31.7517ZM238.06 30.4528L240.457 28.2064L232.879 27.3981L230.546 29.5329L238.06 30.4528ZM227.545 29.1655L229.832 27.0731L222.501 26.2913C221.705 26.9052 220.952 27.5273 220.248 28.1558L220.133 28.2581L227.545 29.1655ZM217.155 27.8934C217.889 27.2454 218.668 26.6038 219.491 25.9702L212.732 25.2492C211.815 25.83 210.935 26.4238 210.096 27.0292L217.155 27.8934ZM207.138 26.6671C207.956 26.0761 208.809 25.4952 209.695 24.9253L203.648 24.2803C202.65 24.8028 201.685 25.3385 200.756 25.8857L207.138 26.6671ZM197.751 25.5179C198.64 24.9838 199.561 24.4593 200.51 23.9456L195.394 23.3999C194.3 23.8637 193.233 24.3436 192.198 24.838L197.751 25.5179ZM189.081 24.4564C190.051 23.974 191.048 23.5033 192.068 23.0452L188.282 22.6414C187.049 23.0449 185.839 23.4699 184.655 23.9145L189.081 24.4564ZM181.263 23.4993C182.215 23.1146 183.185 22.7415 184.171 22.3807C183.378 22.3662 182.571 22.3704 181.752 22.3927C180.716 22.6334 179.675 22.895 178.632 23.1772L181.263 23.4993ZM-553.623 592.27C-553.901 590.066 -552.902 587.585 -550.758 585.036L-526.494 587.624L-538.898 597.582C-539.8 598.306 -540.627 599.033 -541.377 599.759C-548.68 598.885 -553.117 596.18 -553.623 592.27ZM-535.804 597.835L-523.484 587.945L-499.291 590.526L-513.599 602.338L-538.302 600.057C-537.558 599.317 -536.724 598.575 -535.804 597.835ZM-510.545 602.62L-496.283 590.846L-472.878 593.343L-486.439 604.845L-510.545 602.62ZM-483.377 605.128L-469.861 593.664L-447.174 596.084L-460.036 607.283L-483.377 605.128ZM-456.967 607.566L-444.15 596.407L-422.139 598.754L-434.346 609.654L-456.967 607.566ZM-431.26 609.939L-419.098 599.079L-397.702 601.361L-409.292 611.967L-431.26 609.939ZM-406.213 612.251L-394.667 601.684L-373.841 603.905L-384.851 614.223L-406.213 612.251ZM-381.772 614.508L-370.805 604.229L-350.51 606.394L-360.972 616.428L-381.772 614.508ZM-357.89 616.712L-347.469 606.718L-327.679 608.829L-337.624 618.583L-357.89 616.712ZM-334.526 618.869L-324.621 609.155L313.272 677.19C329.171 678.89 352.53 672.384 365.322 662.697L1063.99 133.997C1069.7 129.672 1072.59 125.231 1072.12 121.507C1071.57 117.194 1066.55 114.228 1058.35 113.35L266.971 28.9451L269.245 26.7155L1111.85 104.502C1119.77 105.236 1124.6 108.008 1125.13 112.101C1125.56 115.443 1123.04 119.421 1118.05 123.308L416.984 670.02C405.468 679.004 383.913 685.198 368.974 683.814L-334.526 618.869ZM266.14 26.4289L263.908 28.6184L256.175 27.7937L258.348 25.7095L266.14 26.4289ZM255.266 25.425L253.135 27.4694L245.495 26.6546L246.524 25.6897C246.873 25.3636 247.233 25.0396 247.604 24.7177L255.266 25.425ZM243.221 25.6163L242.458 26.3307L235.001 25.5353C235.728 24.9388 236.497 24.3489 237.304 23.7668L244.539 24.4346C244.084 24.8256 243.644 25.2196 243.221 25.6163ZM234.229 23.4829C233.443 24.053 232.691 24.6299 231.975 25.2126L225.027 24.4716C225.833 23.9278 226.673 23.3922 227.545 22.8658L234.229 23.4829ZM224.431 22.5784C223.594 23.0945 222.785 23.6185 222.007 24.1495L215.713 23.4782C216.601 22.9823 217.516 22.4981 218.453 22.0265L224.431 22.5784ZM215.221 21.7281C214.334 22.1915 213.467 22.6653 212.624 23.1487L207.148 22.5647C208.123 22.117 209.123 21.6816 210.146 21.2596L215.221 21.7281ZM206.68 20.9397C205.732 21.3556 204.804 21.782 203.898 22.218L199.571 21.7565C200.678 21.3528 201.808 20.9655 202.956 20.5959L206.68 20.9397ZM198.714 20.366C197.806 20.6938 196.91 21.0315 196.029 21.3788L193.476 21.1066C194.445 20.8505 195.411 20.6116 196.374 20.3901C197.167 20.3657 197.948 20.3576 198.714 20.366ZM-540.017 601.954C-542.027 604.463 -542.956 606.898 -542.684 609.059C-542.184 612.989 -537.872 615.716 -530.749 616.7C-529.983 615.932 -529.13 615.16 -528.191 614.384L-515.839 604.186L-540.017 601.954ZM-512.784 604.469L-525.053 614.597C-526.031 615.406 -526.906 616.211 -527.676 617.009L-503.079 618.958L-488.625 606.699L-512.784 604.469ZM-485.563 606.981L-499.974 619.204L-475.918 621.11L-462.17 609.141L-485.563 606.981ZM-459.102 609.424L-472.807 621.357L-449.518 623.202L-436.432 611.517L-459.102 609.424ZM-433.346 611.802L-446.39 623.45L-423.795 625.24L-411.332 613.834L-433.346 611.802ZM-408.254 614.118L-420.677 625.487L-398.726 627.227L-386.848 616.095L-408.254 614.118ZM-383.769 616.379L-395.608 627.474L-374.254 629.166L-362.927 618.303L-383.769 616.379ZM-359.845 618.587L-371.133 629.413L-350.346 631.06L-339.54 620.462L-359.845 618.587ZM-336.441 620.748L-347.209 631.308L422.263 692.276C429.845 692.873 439.149 691.689 448.491 688.927C457.815 686.169 466.047 682.169 471.666 677.661L1175.13 112.943C1180 109.041 1182.45 105.05 1182.02 101.72L1182.03 101.708C1181.48 97.3683 1176.28 94.4945 1167.77 93.8174L273.102 22.9354C273.006 23.0275 272.911 23.1198 272.817 23.2121L271.16 24.8368L1114.21 102.664C1123.03 103.477 1128.41 106.556 1129 111.118C1129.47 114.829 1126.67 119.261 1121.12 123.591L420.048 670.297C407.223 680.296 383.252 687.187 366.616 685.652L-336.441 620.748ZM268.056 24.5502L269.436 23.1959C269.61 23.0259 269.786 22.8562 269.965 22.6869L262.367 22.0849C261.646 22.6631 260.962 23.2471 260.318 23.8358L268.056 24.5502ZM257.247 23.5524C257.885 22.9768 258.559 22.4054 259.265 21.8391L252.128 21.2737C251.352 21.7987 250.605 22.3321 249.889 22.8731L257.247 23.5524ZM246.827 22.5904C247.524 22.062 248.248 21.5402 248.998 21.0257L242.385 20.5018C241.556 20.9795 240.753 21.4653 239.978 21.9582L246.827 22.5904ZM236.876 21.6718C237.62 21.1909 238.388 20.716 239.179 20.2478L233.252 19.7782C232.366 20.209 231.501 20.6493 230.661 21.098L236.876 21.6718ZM227.475 20.8039C228.268 20.3667 229.082 19.9364 229.914 19.5138L224.918 19.1179C223.963 19.5018 223.022 19.8986 222.098 20.3075L227.475 20.8039ZM218.731 19.9968C219.584 19.5995 220.452 19.2117 221.333 18.8338L217.645 18.5417C216.571 18.8811 215.513 19.2354 214.473 19.6037L218.731 19.9968ZM210.759 19.2608C211.574 18.9469 212.399 18.6408 213.236 18.3429C212.514 18.3406 211.78 18.3523 211.037 18.3778C210.137 18.5826 209.234 18.8022 208.33 19.0365L210.759 19.2608ZM-531.746 625.849C-532.021 623.697 -531.186 621.343 -529.309 618.894L-505.251 620.801L-517.501 631.191C-518.463 632.009 -519.332 632.823 -520.107 633.631C-527.061 632.547 -531.251 629.794 -531.746 625.849ZM-514.317 631.369L-502.146 621.047L-478.039 622.957L-492.598 635.633L-516.497 634.026C-516.687 634.013 -516.875 633.999 -517.061 633.985C-516.266 633.12 -515.35 632.247 -514.317 631.369ZM-489.448 635.845L-474.928 623.204L-451.591 625.053L-465.481 637.457L-489.448 635.845ZM-462.314 637.67L-448.463 625.301L-425.822 627.095L-439.084 639.232L-462.314 637.67ZM-435.928 639.444L-422.704 627.342L-400.709 629.085L-413.381 640.96L-435.928 639.444ZM-410.225 641.173L-397.591 629.332L-376.195 631.028L-388.31 642.646L-410.225 641.173ZM-385.153 642.859L-373.075 631.275L-352.248 632.926L-363.837 644.292L-385.153 642.859ZM-360.665 644.505L-349.112 633.174L419.96 694.121C428.372 694.787 438.708 693.466 449.061 690.405C459.43 687.333 468.55 682.895 474.775 677.903L1178.24 113.186C1183.63 108.856 1186.35 104.433 1185.88 100.729C1185.26 95.9141 1179.5 92.7241 1170.06 91.9779L275.192 21.069C275.824 20.5416 276.486 20.0185 277.178 19.5006L1223.68 83.1449C1232.78 83.7595 1238.35 86.7354 1238.93 91.3222L1238.91 91.3336C1239.36 94.7113 1237.03 98.6106 1232.22 102.579L526.348 685.309C520.693 689.964 512.32 694.133 502.726 697.044C493.132 699.955 483.48 701.27 475.552 700.739L-360.665 644.505ZM274.01 19.2875C273.337 19.7947 272.691 20.3063 272.071 20.8218L264.813 20.2466C265.498 19.7631 266.208 19.2847 266.943 18.8123L274.01 19.2875ZM263.75 18.5976C263.044 19.0602 262.36 19.5278 261.699 19.9998L254.968 19.4665C255.706 19.0234 256.464 18.5877 257.24 18.1599L263.75 18.5976ZM253.947 17.9385C253.211 18.3574 252.492 18.7829 251.789 19.2146L245.654 18.7285C246.441 18.3261 247.248 17.9308 248.071 17.5434L253.947 17.9385ZM244.618 17.3111C243.849 17.6904 243.095 18.076 242.358 18.4673L237.05 18.0467C237.905 17.6815 238.776 17.325 239.662 16.9779L244.618 17.3111ZM235.944 16.7279C235.134 17.0681 234.337 17.4156 233.554 17.7697L229.415 17.4417C230.38 17.1091 231.354 16.7901 232.335 16.4852L235.944 16.7279ZM227.794 16.3193C227.041 16.5841 226.293 16.8563 225.552 17.1356L223.237 16.9521C224.06 16.7442 224.881 16.5479 225.7 16.3635C226.407 16.3367 227.106 16.322 227.794 16.3193ZM-518.621 635.879C-520.349 638.261 -521.11 640.547 -520.842 642.64C-520.338 646.597 -516.26 649.382 -509.459 650.557C-508.673 649.709 -507.784 648.853 -506.794 647.993L-494.727 637.486L-518.621 635.879ZM-491.576 637.698L-503.579 648.148C-504.662 649.091 -505.612 650.029 -506.425 650.957C-505.823 651.013 -505.205 651.06 -504.57 651.095L-482.165 652.354L-467.56 639.313L-491.576 637.698ZM-464.393 639.526L-478.961 652.534L-455.087 653.876L-441.117 641.092L-464.393 639.526ZM-437.96 641.304L-451.895 654.056L-428.743 655.357L-415.369 642.823L-437.96 641.304ZM-412.213 643.036L-425.552 655.537L-403.069 656.8L-390.256 644.512L-412.213 643.036ZM-387.099 644.725L-399.877 656.98L-378.026 658.208L-365.743 646.161L-387.099 644.725ZM-362.571 646.374L-374.82 658.388L528.874 709.185C545.95 710.144 569.338 702.856 581.044 692.931L1289.32 92.1956C1294.01 88.2143 1296.28 84.3132 1295.84 80.9173L1295.84 80.924C1295.23 76.0951 1289.31 73.0125 1279.59 72.465L281.801 16.3794C281.096 16.8111 280.411 17.2481 279.747 17.6897L1225.88 81.308C1235.97 81.9848 1242.1 85.2836 1242.76 90.348C1243.22 94.0971 1240.68 98.3943 1235.36 102.792L529.468 685.519C523.245 690.67 513.951 695.285 503.348 698.508C492.743 701.725 482.06 703.184 473.305 702.59L-362.571 646.374ZM276.55 17.4747C277.187 17.0439 277.842 16.6171 278.515 16.1947L272.051 15.8313C271.312 16.2241 270.589 16.6226 269.885 17.0266L276.55 17.4747ZM266.63 16.8077C267.297 16.4144 267.979 16.0256 268.676 15.6416L262.914 15.3177C262.137 15.672 261.371 16.0341 260.619 16.4035L266.63 16.8077ZM257.215 16.1746C257.915 15.8162 258.627 15.4637 259.348 15.1173L254.433 14.841C253.599 15.1602 252.778 15.4873 251.97 15.822L257.215 16.1746ZM248.337 15.5777C249.072 15.2541 249.818 14.9361 250.575 14.6242L247.007 14.4236C246.412 14.606 245.818 14.7941 245.224 14.9877C244.904 15.0919 244.585 15.1974 244.268 15.304L248.337 15.5777ZM240.242 15.0334C240.924 14.7815 241.614 14.5347 242.31 14.2933C241.673 14.3006 241.028 14.3178 240.376 14.3448C239.605 14.5161 238.835 14.6969 238.067 14.8871L240.242 15.0334ZM-509.936 659.446C-510.197 657.411 -509.509 655.192 -507.929 652.881C-507.545 652.91 -507.155 652.937 -506.76 652.959L-484.258 654.224L-496.089 664.788C-497.101 665.694 -498.004 666.595 -498.796 667.488C-505.394 666.202 -509.437 663.353 -509.936 659.446ZM-492.826 664.916L-481.054 654.404L-457.132 655.748L-471.777 669.15L-492.656 668.189C-493.743 668.139 -494.788 668.057 -495.788 667.944C-494.954 666.945 -493.966 665.934 -492.826 664.916ZM-468.551 669.298L-453.94 655.927L-430.743 657.231L-444.786 670.392L-468.551 669.298ZM-441.562 670.541L-427.552 657.411L-405.025 658.677L-418.502 671.602L-441.562 670.541ZM-415.278 671.75L-401.834 658.856L-379.941 660.087L-392.884 672.781L-415.278 671.75ZM-389.647 672.93L-376.736 660.267L526.683 711.042C545.514 712.093 571.323 704.056 584.228 693.11L1292.5 92.374C1297.69 87.9751 1300.19 83.6783 1299.7 79.9338C1299.02 74.609 1292.49 71.2107 1281.76 70.6057L284.911 14.5792C285.563 14.222 286.229 13.8692 286.908 13.5213L1335.48 61.7833C1345.66 62.2534 1352.12 65.5231 1352.76 70.5264C1353.19 73.9223 1350.99 77.8367 1346.4 81.8309L635.71 700.584C630.035 705.534 621.311 710.044 611.196 713.271C601.098 716.493 590.783 718.054 582.165 717.654L-389.647 672.93ZM283.418 13.3606C282.782 13.6999 282.157 14.0431 281.544 14.39L275.595 14.0556C276.282 13.7309 276.98 13.4112 277.69 13.0969L283.418 13.3606ZM274.022 12.9282C273.368 13.2342 272.724 13.5444 272.09 13.8586L266.994 13.5722C267.73 13.2768 268.474 12.9884 269.224 12.7073L274.022 12.9282ZM265.228 12.5234C264.553 12.797 263.884 13.076 263.221 13.3601L259.239 13.1363C260.059 12.8676 260.881 12.6092 261.704 12.3612L265.228 12.5234ZM256.84 12.2648C256.234 12.4728 255.633 12.6846 255.037 12.9001L252.98 12.7845C253.64 12.6246 254.299 12.4719 254.956 12.3264C255.589 12.297 256.218 12.2764 256.84 12.2648ZM-497.217 669.875C-498.664 672.12 -499.284 674.273 -499.03 676.252C-498.536 680.171 -494.59 683.042 -488.126 684.413C-487.325 683.479 -486.404 682.535 -485.365 681.586L-473.805 671.006L-494.776 670.041C-495.613 670.003 -496.427 669.947 -497.217 669.875ZM-470.58 671.155L-482.091 681.689C-483.275 682.775 -484.294 683.853 -485.142 684.916C-483.751 685.095 -482.271 685.216 -480.708 685.274L-461.419 685.98L-446.769 672.25L-470.58 671.155ZM-443.545 672.399L-458.164 686.099L-434.52 686.964L-420.441 673.462L-443.545 672.399ZM-417.218 673.61L-431.266 687.083L-408.323 687.922L-394.783 674.643L-417.218 673.61ZM-391.545 674.791L-405.056 688.042L635.49 726.114C644.45 726.435 655.098 724.754 665.465 721.379C675.85 717.998 684.715 713.319 690.442 708.211L1403.52 71.4569C1408.01 67.4451 1410.16 63.5242 1409.72 60.1216L1409.7 60.1194C1409.04 54.8625 1402.18 51.4932 1391.38 51.097L292.516 10.8859C291.865 11.1666 291.222 11.4516 290.589 11.7408L1337.61 59.9266C1348.82 60.4359 1355.91 64.0372 1356.62 69.5363C1357.1 73.274 1354.68 77.5726 1349.63 81.9683L638.937 700.714C632.679 706.171 623.087 711.128 611.966 714.673C600.827 718.224 589.484 719.942 580.024 719.498L-391.545 674.791ZM286.95 11.5733C287.53 11.2945 288.118 11.0189 288.713 10.7467L283.951 10.5724C283.264 10.8239 282.585 11.0803 281.915 11.3416L286.95 11.5733ZM278.014 11.162C278.612 10.9116 279.218 10.6648 279.829 10.4216L276.428 10.2972C275.679 10.5192 274.933 10.749 274.191 10.9861L278.014 11.162ZM269.808 10.7843C270.337 10.5963 270.869 10.4116 271.403 10.2304C270.83 10.2439 270.252 10.2646 269.669 10.2926C269.079 10.4215 268.487 10.5561 267.895 10.6963L269.808 10.7843ZM-488.159 693.06C-488.406 691.138 -487.844 689.05 -486.518 686.873C-485.336 686.996 -484.098 687.081 -482.809 687.128L-463.402 687.838L-474.659 698.388C-475.721 699.381 -476.657 700.369 -477.465 701.346C-483.808 699.899 -487.656 696.998 -488.159 693.06ZM-471.355 698.461L-460.147 687.958L-436.46 688.824L-451.082 702.848L-468.797 702.355C-470.834 702.298 -472.738 702.141 -474.495 701.89C-473.637 700.762 -472.588 699.616 -471.355 698.461ZM-447.799 702.939L-433.206 688.944L-410.222 689.785L-424.301 703.593L-447.799 702.939ZM-421.006 703.685L-406.955 689.904L633.39 727.975C643.208 728.336 654.882 726.491 666.27 722.779C677.661 719.073 687.391 713.94 693.667 708.334L1406.74 71.5806C1411.66 67.1766 1414.03 62.8716 1413.55 59.1406C1412.82 53.3811 1405.31 49.6849 1393.45 49.2519L296.871 9.12449C297.476 8.89503 298.087 8.66931 298.704 8.44748L1447.3 40.413C1458.72 40.7354 1465.96 44.2089 1466.67 49.708L1466.65 49.7193C1467.07 53.1334 1464.98 57.0608 1460.58 61.0902L745.106 715.856C733.245 726.713 707.974 735.109 688.779 734.577L-421.006 703.685ZM294.431 8.32859C293.887 8.5416 293.346 8.75742 292.811 8.97594L289.063 8.83877C289.727 8.63101 290.393 8.42964 291.059 8.23474L294.431 8.32859ZM284.985 8.51114C284.83 8.5647 284.675 8.61848 284.52 8.67252L282.82 8.6103C283.329 8.4924 283.838 8.37833 284.347 8.26809C284.862 8.24184 285.374 8.22103 285.882 8.20574C285.583 8.30638 285.284 8.40816 284.985 8.51114ZM-475.81 703.857C-477.024 705.972 -477.529 707.999 -477.289 709.868C-476.788 713.826 -473.02 716.754 -466.789 718.272C-465.978 717.255 -465.032 716.226 -463.952 715.19L-453.014 704.7L-470.828 704.204C-472.581 704.155 -474.244 704.038 -475.81 703.857ZM-449.731 704.792L-460.619 715.234C-461.892 716.455 -462.963 717.667 -463.826 718.858C-461.716 719.187 -459.389 719.382 -456.869 719.43L-440.772 719.747L-426.191 705.447L-449.731 704.792ZM-422.896 705.539L-437.45 719.813L742.068 743.039C751.719 743.229 763.028 741.295 773.935 737.606C784.842 733.916 794.022 728.898 799.803 723.485L1517.68 50.7138C1521.99 46.6737 1524.04 42.7352 1523.62 39.3076C1522.89 33.5548 1515.26 29.9703 1503.21 29.7333L305.756 6.16567C305.17 6.33471 304.585 6.50863 304.001 6.68736L1449.32 38.5682C1461.82 38.9181 1469.74 42.7206 1470.5 48.7405C1470.96 52.4761 1468.68 56.7717 1463.86 61.1864L748.379 715.953C735.391 727.833 707.731 737.034 686.734 736.444L-422.896 705.539ZM299.269 6.55568L297.693 6.51181C298.108 6.41749 298.523 6.3258 298.938 6.23676C299.432 6.20944 299.923 6.18699 300.413 6.16944C300.031 6.29629 299.65 6.42507 299.269 6.55568ZM-466.419 726.669C-466.644 724.857 -466.191 722.898 -465.09 720.855C-463.159 721.1 -461.079 721.247 -458.861 721.291L-442.671 721.609L-453.262 731.997C-454.355 733.07 -455.309 734.138 -456.119 735.192C-462.234 733.605 -465.92 730.648 -466.419 726.669ZM-449.883 732.006L-439.349 721.675L740.125 744.879C750.647 745.084 762.999 742.981 774.906 738.946C786.815 734.917 796.843 729.443 803.154 723.531L1521.03 50.7597C1525.74 46.3502 1527.97 42.0436 1527.49 38.3127C1526.69 32.0303 1518.37 28.1213 1505.2 27.866L312.692 4.39567C312.989 4.32963 313.286 4.26495 313.584 4.20158C315.354 4.10014 317.087 4.0588 318.772 4.07945L1559.1 19.0516C1571.79 19.2055 1579.83 22.8828 1580.58 28.8958L1580.58 28.9026C1581.02 32.3257 1579.01 36.282 1574.78 40.3376L854.501 731.122C842.536 742.6 816.015 751.735 795.391 751.492L-444.941 736.506C-447.953 736.472 -450.704 736.238 -453.156 735.821C-452.289 734.569 -451.195 733.293 -449.883 732.006ZM-454.373 737.846C-452.082 738.162 -449.576 738.341 -446.877 738.373L793.472 753.355C815.927 753.625 844.831 743.665 857.868 731.156L1578.15 40.3721C1582.76 35.9518 1584.92 31.6434 1584.46 27.9078C1583.62 21.3697 1574.87 17.359 1561.06 17.1936L326.471 2.28399C328.809 2.0958 331.093 2.00578 333.3 2.01794L1614.99 8.38344C1628.31 8.44525 1636.75 12.2289 1637.55 18.491L1637.56 18.4863C1638.01 21.9161 1636.05 25.8858 1631.9 29.9568L909.215 738.746C903.381 744.463 893.883 749.814 882.456 753.819C871.013 757.829 859.038 760.002 848.698 759.95L-433.009 753.596C-446.316 753.523 -454.751 749.746 -455.549 743.477C-455.776 741.719 -455.375 739.823 -454.373 737.846Z" fill="#0EE20E" fill-opacity="0.08"/>
</svg>
